<?xml version="1.0" standalone="no"?>
<!DOCTYPE svg PUBLIC "-//W3C//DTD SVG 20010904//EN"
 "http://www.w3.org/TR/2001/REC-SVG-20010904/DTD/svg10.dtd">
<svg version="1.0" xmlns="http://www.w3.org/2000/svg"
 width="750.000000pt" height="750.000000pt" viewBox="0 0 750.000000 750.000000"
 preserveAspectRatio="xMidYMid meet">

<g transform="translate(0.000000,750.000000) scale(0.100000,-0.100000)"
fill="#000000" stroke="none">
<path d="M2170 7479 c0 -11 -4 -17 -10 -14 -5 3 -10 2 -10 -4 0 -5 5 -13 10
-16 6 -3 7 -18 3 -33 -6 -24 -5 -26 10 -13 10 7 17 20 17 27 0 8 10 19 23 25
13 6 28 19 35 30 11 18 9 19 -33 19 -39 0 -45 -3 -45 -21z"/>
<path d="M2500 7490 c0 -11 -18 -34 -77 -97 -34 -35 -41 -48 -33 -62 8 -15 6
-17 -15 -13 -14 2 -25 0 -25 -5 0 -6 -16 -27 -35 -47 -40 -43 -43 -56 -16 -80
16 -15 19 -15 24 -1 4 8 13 15 21 15 8 0 18 10 22 23 3 12 15 30 25 40 11 10
19 30 19 45 0 40 22 66 49 59 16 -4 27 3 46 27 30 40 32 56 4 56 -11 0 -17 5
-14 10 3 6 17 7 30 4 15 -4 30 0 40 9 23 23 19 27 -25 27 -22 0 -40 -4 -40
-10z"/>
<path d="M5199 7493 c-1 -5 -3 -17 -5 -28 -2 -11 -12 -58 -23 -105 -12 -47
-25 -110 -31 -140 -9 -49 -18 -85 -50 -210 -5 -19 -6 -38 -1 -43 4 -4 42 -4
84 -1 l77 7 0 38 c0 46 8 69 25 69 15 0 21 42 31 201 5 87 3 111 -10 137 -9
17 -16 42 -16 57 0 23 -4 25 -40 25 -22 0 -41 -3 -41 -7z"/>
<path d="M4242 7341 c-12 -38 -20 -75 -17 -82 7 -18 104 -84 111 -76 4 3 -3
22 -15 42 -11 20 -21 49 -21 65 0 34 -21 120 -30 120 -3 0 -15 -31 -28 -69z"/>
<path d="M2112 7372 c-24 -27 -37 -63 -30 -83 5 -16 68 70 68 93 0 24 -11 22
-38 -10z"/>
<path d="M7107 7359 c-10 -36 -8 -229 3 -359 7 -82 7 -151 -2 -240 -14 -153
-6 -203 34 -208 22 -3 27 2 34 30 11 46 7 508 -5 594 -15 105 -31 170 -45 189
-12 17 -13 16 -19 -6z"/>
<path d="M2006 7215 c-4 -16 -13 -25 -27 -25 -11 0 -18 -4 -15 -9 3 -4 -5 -6
-17 -4 -19 4 -24 -2 -33 -44 -6 -26 -9 -54 -7 -60 7 -18 23 -16 23 2 0 9 8 19
18 22 22 8 32 23 32 50 0 13 8 24 20 28 14 4 20 15 20 36 0 36 -6 37 -14 4z"/>
<path d="M2224 7135 c-9 -22 9 -37 37 -33 23 3 34 27 14 29 -5 1 -18 5 -28 10
-13 7 -19 6 -23 -6z m36 -15 c0 -5 -4 -10 -10 -10 -5 0 -10 5 -10 10 0 6 5 10
10 10 6 0 10 -4 10 -10z"/>
<path d="M2138 7022 c-10 -2 -18 -12 -18 -23 0 -10 -4 -19 -9 -19 -5 0 -14
-13 -21 -29 -6 -16 -18 -32 -26 -35 -7 -3 -11 -12 -8 -21 3 -8 1 -15 -5 -15
-6 0 -11 -7 -11 -15 0 -8 5 -15 10 -15 6 0 10 7 10 15 0 18 20 20 20 3 1 -18
80 71 80 89 0 8 4 12 9 9 5 -3 14 0 20 8 9 11 7 15 -11 20 -17 4 -20 8 -10 15
11 7 11 9 0 13 -7 2 -21 3 -30 0z"/>
<path d="M1795 6940 c3 -5 -4 -12 -15 -15 -21 -7 -31 -24 -44 -77 -7 -32 13
-40 21 -8 3 11 8 20 12 20 4 0 13 16 21 35 7 19 17 32 21 29 4 -2 10 0 13 5 3
5 -3 11 -14 14 -11 3 -18 1 -15 -3z"/>
<path d="M1701 6827 c-7 -10 -20 -17 -27 -17 -20 0 -17 -27 3 -34 22 -9 46 16
41 44 -3 21 -4 22 -17 7z"/>
<path d="M2000 6820 c-6 -12 -9 -24 -7 -27 3 -2 11 5 17 17 6 12 9 24 7 27 -3
2 -11 -5 -17 -17z"/>
<path d="M4804 6753 c-9 -27 -20 -51 -24 -56 -3 -4 -25 9 -47 28 -26 22 -47
33 -57 29 -9 -3 -16 -10 -16 -14 0 -4 -15 -24 -33 -44 -32 -34 -36 -36 -98
-36 -35 1 -84 6 -109 11 -25 6 -56 10 -70 9 -41 -2 -52 -1 -125 11 -86 14
-114 15 -141 6 -14 -5 -27 -3 -35 6 -10 9 -29 12 -64 8 l-50 -6 -3 -42 -3 -43
-29 15 c-16 8 -38 15 -48 15 -22 0 -52 -30 -52 -52 0 -14 -27 -23 -132 -45
-16 -3 -28 -12 -28 -20 0 -20 -41 -7 -59 18 -7 10 -24 19 -37 19 -13 0 -35 11
-50 25 -49 46 -78 29 -83 -50 -4 -49 -7 -55 -30 -55 -10 0 -27 -12 -37 -27
-18 -28 -117 -154 -177 -226 -28 -33 -36 -38 -63 -34 -18 3 -36 1 -42 -5 -6
-6 -25 -13 -44 -17 -48 -10 -47 -34 3 -70 31 -23 45 -28 55 -20 7 6 17 8 23 5
9 -6 44 35 52 63 3 8 25 15 61 17 44 4 64 0 90 -16 23 -14 42 -18 64 -14 27 5
35 1 54 -25 29 -42 61 -134 50 -145 -13 -13 -116 -10 -149 4 -21 8 -35 9 -49
1 -12 -6 -32 -11 -46 -11 -14 0 -43 -7 -63 -15 -21 -8 -58 -16 -83 -17 -25 -2
-51 -8 -58 -12 -18 -11 -249 -29 -279 -21 -21 5 -23 9 -17 43 8 47 19 60 52
64 25 3 27 6 25 51 -2 26 2 47 7 47 17 0 11 17 -19 49 -49 52 -78 39 -95 -41
-7 -32 -39 -38 -71 -14 -11 8 -24 12 -30 10 -10 -4 -61 -8 -157 -13 -31 -1
-35 -12 -13 -35 14 -14 14 -16 -7 -20 -23 -5 -86 -14 -142 -22 -16 -2 -35 -9
-43 -15 -7 -7 -34 -16 -60 -20 -25 -5 -52 -14 -59 -20 -19 -16 -17 -49 3 -64
26 -19 9 -42 -37 -49 -23 -4 -43 -13 -47 -22 -5 -12 -15 -15 -44 -10 -24 4
-40 2 -45 -6 -4 -6 -2 -14 4 -16 7 -2 19 -10 26 -18 11 -10 41 -14 111 -14 90
0 102 -2 169 -35 40 -19 76 -35 79 -35 4 0 71 -30 149 -66 79 -36 152 -68 162
-70 35 -7 45 -27 46 -99 0 -38 1 -77 0 -85 0 -8 2 -29 6 -46 5 -25 2 -32 -18
-42 l-23 -11 23 -7 c12 -3 22 -11 22 -16 0 -10 61 -38 85 -38 12 0 15 6 10 20
-4 13 2 31 15 50 23 32 37 31 49 -2 7 -20 116 -66 179 -75 18 -3 38 -13 45
-23 6 -9 29 -25 50 -35 26 -12 37 -24 37 -39 0 -29 58 -53 149 -62 88 -8 91
-5 90 86 0 60 -15 112 -46 164 -11 19 -12 19 -53 -8 -23 -15 -56 -50 -72 -77
-26 -40 -35 -48 -52 -43 -12 3 -25 10 -30 15 -6 5 -22 9 -37 9 -39 0 -44 27
-20 105 19 61 20 81 4 138 -4 15 4 17 69 17 77 0 121 -15 145 -50 23 -33 63
-47 168 -60 132 -16 257 -73 205 -92 -27 -10 -25 -24 5 -44 14 -9 25 -23 25
-30 0 -9 11 -14 28 -14 40 0 56 -14 50 -44 -5 -26 -5 -26 59 -26 43 0 90 -9
144 -27 76 -26 95 -37 122 -74 16 -22 107 -33 107 -13 0 18 13 24 38 17 15 -3
22 -13 22 -28 0 -18 7 -25 33 -30 17 -4 46 -16 64 -27 25 -15 37 -17 52 -9 16
9 25 6 48 -13 16 -14 42 -28 57 -32 15 -3 32 -16 37 -28 12 -26 52 -32 69 -11
7 8 16 12 21 9 5 -3 6 3 2 12 -5 14 -3 16 11 11 10 -4 20 -7 22 -7 2 0 4 -4 4
-10 0 -5 -6 -10 -12 -10 -31 -1 -39 -16 -30 -58 8 -32 7 -44 -4 -53 -18 -14
-18 -39 -1 -39 7 0 20 -9 30 -20 30 -36 77 -20 77 27 0 27 28 31 37 6 13 -38
34 -53 57 -41 11 6 28 14 36 18 21 10 27 82 7 74 -20 -7 -27 7 -29 53 0 21 -5
44 -11 51 -5 6 -6 13 -1 13 38 6 53 5 48 -2 -3 -5 2 -26 12 -46 9 -21 22 -51
29 -67 7 -16 11 -34 9 -40 -4 -10 11 -13 69 -16 9 -1 17 -8 17 -16 0 -11 -5
-12 -18 -5 -29 15 -69 2 -75 -25 -2 -13 0 -25 4 -26 11 -4 15 -88 5 -110 -6
-12 2 -23 29 -41 21 -14 43 -23 50 -20 13 5 39 -30 29 -39 -2 -3 32 -16 76
-29 84 -24 102 -39 47 -39 -23 0 -41 -8 -57 -25 -13 -14 -29 -25 -36 -25 -16
0 -77 -32 -86 -45 -16 -22 -8 -35 17 -29 14 3 32 1 39 -5 16 -13 82 -6 103 11
7 5 21 7 33 3 11 -3 20 -2 20 3 0 5 11 17 24 26 23 14 26 14 42 -1 15 -16 15
-17 -2 -24 -11 -4 -13 -8 -6 -8 6 -1 12 -11 13 -23 1 -22 1 -22 8 2 5 19 9 22
16 11 6 -10 1 -20 -16 -33 -13 -10 -30 -23 -37 -29 -7 -6 -19 -8 -27 -5 -10 3
-17 -3 -21 -19 -3 -14 -11 -25 -18 -26 -6 0 -1 -4 12 -10 13 -5 20 -13 17 -19
-3 -5 -1 -10 4 -10 6 0 11 -5 11 -12 0 -9 -3 -9 -12 0 -44 44 -94 -42 -52 -89
22 -25 11 -92 -14 -85 -9 3 -35 6 -57 8 -34 2 -40 0 -38 -17 1 -10 -12 -34
-28 -52 -28 -32 -33 -48 -30 -85 1 -10 -4 -18 -13 -18 -8 0 -16 -10 -18 -22
-3 -25 19 -58 38 -58 11 0 30 -55 26 -72 -3 -12 4 -10 42 13 34 20 56 19 56
-3 0 -7 -4 -7 -13 0 -8 7 -19 7 -35 -2 -22 -12 -22 -13 -6 -27 10 -8 15 -9 11
-2 -10 15 11 27 26 15 7 -5 21 -12 32 -15 18 -6 18 -6 3 6 -10 8 -13 18 -9 26
6 9 14 5 30 -17 12 -17 20 -36 19 -43 -2 -6 3 -14 11 -17 8 -2 11 0 7 6 -3 5
1 13 10 16 13 5 15 0 10 -27 -3 -17 -3 -26 0 -20 4 9 18 11 44 7 28 -5 43 -2
54 8 13 13 12 19 -5 47 -19 32 -19 32 0 26 27 -8 37 13 15 31 -18 15 -18 15 4
11 12 -3 22 -2 22 3 0 16 44 19 61 4 11 -10 26 -13 43 -8 18 4 26 2 26 -7 0
-7 3 -10 6 -7 3 4 14 -2 25 -13 11 -11 33 -22 50 -26 33 -6 47 -22 30 -32 -7
-5 -3 -12 14 -19 15 -7 25 -8 25 -2 0 10 5 9 68 -5 30 -7 33 -11 30 -36 -5
-29 6 -35 48 -30 7 1 14 -5 18 -14 3 -8 1 -15 -4 -15 -6 0 -10 -5 -10 -10 0
-11 40 8 51 24 4 5 19 10 34 11 l27 3 -21 -22 c-24 -26 -28 -48 -7 -40 21 8
63 -16 46 -26 -8 -5 -10 -15 -6 -26 6 -15 5 -17 -5 -6 -18 17 -30 15 -22 -5 4
-11 3 -14 -5 -9 -7 4 -12 2 -12 -3 0 -6 5 -11 10 -11 6 0 5 -6 -2 -14 -7 -8
-15 -12 -17 -10 -2 2 -12 -1 -22 -7 -21 -11 -28 -79 -8 -79 6 0 9 -6 6 -12 -2
-7 -11 -12 -21 -10 -13 2 -16 -5 -15 -40 1 -24 4 -33 6 -20 2 12 8 22 13 22 5
0 16 3 26 7 12 4 15 3 10 -6 -5 -7 2 -20 18 -32 25 -20 26 -45 2 -61 -6 -5 -2
-8 10 -8 23 0 48 -23 37 -33 -10 -11 -35 -8 -28 3 3 6 -1 10 -10 10 -9 0 -13
-4 -10 -10 3 -6 2 -10 -4 -10 -5 0 -13 4 -16 10 -3 5 -16 15 -28 21 -15 8 -11
1 11 -20 33 -31 66 -45 91 -39 8 2 16 -3 18 -9 3 -9 -6 -13 -27 -13 -23 0 -33
-5 -37 -20 -7 -26 -30 -26 -38 1 -7 19 -7 20 -21 2 -17 -22 -18 -37 -2 -27 8
5 9 2 5 -9 -3 -10 -2 -17 3 -17 6 0 10 5 10 12 0 9 3 9 12 0 10 -10 10 -15 -2
-22 -8 -6 -20 -8 -27 -5 -20 7 -32 -19 -30 -64 1 -24 3 -38 5 -32 6 18 18 12
19 -10 2 -16 -3 -20 -18 -16 -10 3 -19 1 -19 -3 0 -5 -2 -14 -5 -22 -3 -7 6
-26 20 -42 30 -35 33 -57 4 -30 -21 19 -21 19 -18 -6 2 -14 10 -25 17 -25 23
0 32 -28 14 -43 -9 -7 -11 -11 -4 -7 7 4 12 0 12 -10 0 -9 -4 -14 -9 -11 -5 3
-11 -3 -14 -14 -3 -11 0 -18 6 -17 6 1 13 -9 15 -22 3 -18 0 -22 -11 -18 -9 3
-18 -1 -21 -9 -3 -8 -15 -14 -26 -14 -23 0 -24 3 -9 33 7 15 2 13 -15 -8 -14
-16 -26 -36 -26 -42 0 -17 -25 -16 -39 1 -8 10 -9 16 -1 21 5 3 10 12 10 18 0
7 -4 6 -10 -3 -8 -13 -10 -12 -11 5 -1 11 -1 23 0 28 2 14 -8 7 -19 -14 -7
-11 -13 -39 -16 -61 -2 -23 -6 -43 -8 -45 -2 -3 4 -13 14 -23 9 -9 20 -24 22
-31 4 -11 10 -10 27 5 19 17 21 17 21 3 0 -10 5 -17 10 -17 6 0 10 -4 10 -10
0 -5 -7 -10 -16 -10 -8 0 -12 -4 -9 -10 3 -5 -3 -10 -13 -10 -11 0 -22 9 -25
20 -4 14 -10 18 -23 13 -11 -4 -13 -8 -6 -11 7 -2 12 -16 12 -30 0 -15 5 -34
11 -42 8 -12 10 -9 6 12 -2 16 -1 28 2 28 13 0 31 -24 31 -42 0 -10 5 -18 10
-18 6 0 10 -7 10 -15 0 -8 -3 -15 -7 -15 -5 0 -9 -16 -10 -35 -1 -19 -10 -46
-20 -59 -20 -28 -36 -34 -27 -12 6 16 -42 46 -74 46 -10 0 -23 5 -29 11 -7 7
-9 3 -5 -16 3 -18 9 -24 20 -20 8 3 19 0 24 -7 6 -10 8 -10 8 0 0 18 18 14 22
-5 5 -21 -11 -63 -24 -63 -4 0 -8 -6 -8 -14 0 -13 -38 -33 -49 -27 -2 2 -7 -3
-11 -10 -6 -9 -14 -6 -31 9 -16 15 -26 19 -35 11 -6 -5 -18 -8 -25 -7 -8 2
-13 -9 -15 -30 -1 -19 -7 -39 -14 -45 -10 -9 -11 -9 -6 0 3 6 2 14 -4 18 -6 3
-13 -1 -16 -9 -8 -21 -24 -20 -24 2 0 14 -2 15 -10 2 -7 -11 -13 -12 -32 -3
-13 7 -32 13 -43 15 -16 3 -19 10 -17 44 3 34 -1 42 -21 53 -13 7 -32 28 -41
47 -9 19 -21 32 -26 29 -9 -6 -11 1 -15 50 -1 11 -7 19 -13 18 -7 -2 -12 4
-12 11 0 24 -63 66 -88 59 -16 -4 -22 -1 -22 11 0 9 -4 16 -10 16 -5 0 -10 -6
-10 -12 0 -9 -3 -8 -10 2 -7 11 -3 18 13 27 22 11 21 12 -13 26 l-35 15 28 7
c23 6 25 9 14 19 -21 16 -30 63 -14 70 6 4 2 4 -11 2 -19 -4 -22 -1 -16 17 l7
22 -19 -20 c-11 -12 -18 -19 -17 -16 2 2 -4 9 -12 15 -18 13 -26 48 -15 66 5
7 4 24 -1 37 -6 15 -5 22 1 18 5 -3 14 4 20 15 13 25 -1 27 -35 4 -23 -15 -25
-15 -25 1 0 10 7 23 16 30 16 11 27 105 13 105 -12 0 -17 50 -5 50 6 0 3 7 -6
14 -22 16 -24 48 -4 40 8 -3 16 -14 19 -25 8 -28 25 -23 19 6 -2 14 -8 25 -13
25 -5 0 -9 8 -9 18 0 23 -19 42 -42 42 -10 0 -18 3 -18 8 0 4 -15 15 -32 25
-30 17 -33 18 -45 1 -7 -9 -10 -20 -8 -25 3 -4 -4 -5 -15 -2 -11 3 -17 10 -14
17 3 6 -2 2 -10 -8 -16 -20 -16 -20 -17 0 -1 10 -1 22 -1 25 2 10 -32 5 -40
-6 -4 -6 -19 -3 -39 9 -31 18 -31 18 -25 -1 5 -15 -3 -24 -34 -42 -22 -12 -40
-19 -40 -14 0 4 -8 -5 -19 -20 -15 -23 -20 -25 -24 -13 -4 9 -14 16 -23 16
-10 0 -14 5 -10 15 3 8 1 15 -4 15 -5 0 -9 20 -8 44 0 40 4 46 29 55 20 7 27
15 23 25 -3 9 -10 16 -15 16 -5 0 -9 9 -9 21 0 11 4 18 10 14 5 -3 8 7 5 25
-2 16 0 30 5 30 4 0 6 10 4 23 -2 12 -2 16 2 10 7 -15 34 -18 34 -4 0 33 -131
59 -185 37 l-20 -9 20 16 c20 16 19 16 -8 17 -26 0 -27 -1 -23 -46 4 -40 3
-45 -12 -40 -15 5 -14 4 1 -8 10 -8 14 -16 10 -19 -12 -7 -25 3 -40 30 -11 19
-10 21 2 17 11 -5 14 0 13 18 -1 17 -9 25 -25 26 -24 2 -32 -13 -10 -21 6 -2
-4 -3 -23 -2 -23 2 -36 8 -38 19 -3 11 1 14 14 9 12 -4 15 -2 12 8 -6 17 -33
15 -108 -8 -97 -29 -96 -27 -42 -82 45 -47 90 -70 85 -43 -2 6 2 12 7 12 6 0
8 -11 6 -25 -3 -14 -1 -23 3 -21 4 3 18 -6 29 -19 24 -28 42 -31 60 -13 15 15
15 3 0 -25 -7 -12 -12 -28 -13 -36 0 -8 -7 -16 -15 -18 -10 -3 -11 -2 -4 4 7
5 8 16 3 28 -6 17 -8 17 -8 3 -1 -11 -9 -18 -20 -18 -21 0 -37 -54 -25 -84 4
-10 0 -18 -12 -22 -26 -9 -64 -45 -64 -60 0 -6 -7 -17 -15 -24 -13 -10 -15 -9
-15 10 0 19 -2 21 -16 9 -10 -8 -14 -22 -10 -39 l5 -27 -43 20 c-26 12 -43 26
-42 36 0 8 -6 16 -14 16 -22 0 -44 17 -58 45 -10 20 -12 21 -9 5 3 -14 -3 -24
-19 -32 -22 -10 -24 -9 -24 14 0 31 -18 65 -31 58 -5 -4 -9 -15 -9 -26 0 -10
-4 -19 -10 -19 -5 0 -10 7 -10 17 0 15 -1 15 -18 0 -10 -10 -28 -17 -40 -17
-19 0 -21 4 -16 26 6 24 5 25 -14 15 -27 -15 -45 -14 -39 2 5 15 -21 69 -31
63 -4 -2 -16 2 -27 10 -17 13 -18 14 -1 14 12 0 16 5 12 15 -4 12 0 14 22 8
29 -7 52 -26 52 -42 0 -6 5 -11 10 -11 6 0 10 -7 10 -15 0 -8 4 -15 9 -15 5 0
12 -8 14 -17 5 -18 11 37 9 70 -1 10 3 15 8 12 13 -8 13 -3 0 30 -5 14 -14 24
-19 21 -4 -3 -13 6 -20 21 l-12 26 -25 -24 c-17 -16 -23 -18 -19 -7 4 9 2 19
-3 22 -6 3 -13 -1 -16 -10 -3 -9 -12 -14 -19 -11 -8 3 -20 1 -27 -3 -16 -10
-70 24 -70 43 0 7 -7 24 -14 39 -8 15 -11 30 -6 33 4 3 11 -3 15 -13 7 -16 8
-15 15 3 13 30 12 41 -8 65 l-18 22 -1 -23 c-1 -12 -7 -27 -14 -33 -9 -8 -10
-5 -6 12 3 13 -1 39 -10 59 -8 20 -16 56 -18 80 -2 28 -12 54 -29 74 -30 36
-32 33 -10 -15 16 -33 16 -38 -7 -108 -13 -40 -23 -76 -21 -80 4 -15 -16 -8
-22 7 -3 8 -11 15 -18 14 -10 0 -10 -2 0 -6 10 -4 10 -8 1 -19 -6 -8 -16 -14
-22 -14 -5 0 -15 -7 -21 -16 -6 -8 -27 -16 -45 -16 -23 -1 -35 -7 -38 -18 -7
-26 -92 -26 -121 0 -28 26 -28 28 4 28 14 0 31 5 37 12 9 10 9 11 0 6 -9 -5
-13 1 -13 18 0 18 -4 24 -15 20 -21 -8 -41 44 -26 68 16 25 14 28 -17 28 -16
0 -39 9 -52 20 -13 11 -27 17 -32 12 -10 -10 -30 -158 -24 -180 12 -41 17
-222 7 -282 -13 -84 -24 -311 -13 -286 8 17 11 16 42 -12 18 -17 37 -29 41
-27 4 3 9 -2 12 -10 4 -10 1 -12 -10 -8 -9 4 -14 2 -10 -3 3 -5 -6 -10 -20 -9
-17 0 -27 -6 -29 -17 -1 -10 2 -18 7 -18 6 0 8 -4 5 -9 -6 -8 114 -91 131 -91
15 0 112 -72 126 -94 16 -23 12 -80 -4 -70 -5 3 -7 10 -4 15 4 5 1 9 -5 9 -7
0 -26 12 -43 26 -17 14 -74 47 -127 74 -53 26 -102 55 -108 63 -7 8 -25 20
-40 26 -36 16 -69 60 -52 71 13 8 13 19 -2 37 -5 7 -7 17 -3 23 3 5 2 10 -4
10 -5 0 -11 -6 -14 -12 -3 -10 -8 -10 -21 1 -11 10 -13 16 -6 21 7 5 6 11 -5
20 -13 11 -14 10 -8 -6 6 -16 4 -17 -8 -7 -9 7 -25 11 -37 8 -12 -2 -22 1 -22
7 0 5 7 8 15 4 20 -7 19 13 -2 38 -10 12 -11 15 -3 9 21 -19 35 -16 19 4 -13
15 -12 15 18 0 27 -14 32 -15 37 -2 3 8 15 15 26 15 11 0 20 6 21 13 0 6 2 21
5 32 15 73 23 239 19 415 -2 113 -4 208 -4 212 -1 4 -8 4 -18 1 -11 -4 -14 -3
-9 5 11 18 -24 28 -36 11 -8 -11 -9 -11 -5 2 3 9 1 22 -4 30 -7 12 -9 12 -9 0
0 -11 -3 -11 -15 -1 -8 7 -15 20 -15 30 0 19 -97 90 -123 90 -9 0 -17 7 -17
15 0 8 -4 15 -10 15 -5 0 -10 5 -10 10 0 6 11 10 25 10 23 0 25 3 25 49 0 58
-7 81 -25 81 -7 0 -15 5 -17 12 -5 14 -187 15 -214 0 -15 -8 -26 -6 -50 9 -17
10 -44 20 -60 21 -16 1 -52 14 -81 29 l-52 27 31 11 c25 9 36 8 54 -4 20 -13
26 -12 56 2 57 27 78 53 78 94 0 21 4 41 10 44 6 4 5 13 -2 24 -6 10 -8 26 -4
36 12 32 25 2 28 -66 3 -57 5 -65 21 -61 9 2 17 8 17 13 0 15 47 10 60 -6 8
-10 21 -13 38 -8 20 5 23 3 17 -8 -5 -10 -5 -11 3 -4 5 6 12 19 14 30 4 25 63
44 81 25 9 -10 9 -13 0 -17 -18 -7 -16 -20 7 -43 11 -11 20 -16 20 -11 0 5 11
11 25 13 24 3 37 23 16 23 -6 0 -16 6 -22 13 -10 9 -10 12 -1 12 7 0 11 3 10
8 -1 4 4 18 11 31 11 20 11 25 0 33 -11 7 -9 8 5 6 34 -5 27 17 -11 40 -30 17
-34 22 -17 22 26 0 37 32 19 57 -9 11 -10 25 -4 40 5 14 5 23 -1 23 -18 0 -10
20 21 55 18 19 37 31 45 28 11 -4 12 -1 6 13 -32 73 -43 93 -53 96 -7 2 -14
14 -15 26 -3 19 0 17 27 -11 16 -18 41 -49 55 -71 21 -32 23 -41 12 -54 -11
-13 -10 -15 7 -10 11 3 29 9 39 14 16 6 18 4 14 -14 -6 -23 5 -27 60 -22 12 1
22 -4 22 -11 0 -7 3 -9 7 -6 3 4 17 0 30 -8 22 -15 24 -14 33 10 13 35 14 35
-15 35 -14 0 -41 6 -60 14 -18 8 -36 12 -39 9 -3 -3 -11 6 -17 21 -21 45 -4
51 154 53 140 2 222 16 210 36 -4 6 0 8 11 4 9 -4 22 -2 29 3 7 6 28 24 47 40
19 16 38 30 41 30 3 0 16 9 28 19 22 20 22 20 2 30 -43 23 -326 -12 -405 -50
-76 -36 -93 -16 -21 25 25 15 45 31 45 35 0 5 17 12 38 16 l37 7 -45 20 c-25
11 -49 21 -55 22 -19 3 -36 18 -34 29 2 19 -12 57 -22 57 -15 0 -21 -22 -10
-33 6 -6 11 -22 11 -35 0 -17 -4 -22 -17 -19 -10 3 -35 8 -55 12 -21 3 -38 9
-38 13 0 4 -16 16 -35 26 -25 14 -35 26 -35 42 0 21 -2 23 -25 12 -19 -8 -31
-8 -51 1 -27 12 -44 8 -44 -12 0 -25 -64 -64 -114 -69 -27 -3 -51 -10 -55 -15
-3 -5 -27 -20 -53 -32 -27 -13 -48 -29 -48 -37 0 -12 4 -12 21 -3 12 6 19 7
15 1 -3 -6 11 -12 35 -14 22 -2 43 0 45 4 9 14 54 9 60 -7 5 -11 11 -12 24 -5
28 15 31 13 24 -17 -3 -16 -16 -37 -29 -48 -12 -11 -24 -26 -27 -34 -7 -23
-48 -21 -60 3 -18 34 -31 42 -63 41 -45 -2 -43 -29 4 -63 22 -16 54 -35 71
-42 24 -10 30 -18 30 -44 0 -39 15 -56 50 -56 29 0 70 -25 70 -43 0 -21 -44
-40 -86 -38 -30 1 -43 -3 -47 -14 -4 -8 -14 -15 -24 -15 -15 0 -16 -2 -3 -10
11 -7 0 -10 -37 -10 -28 0 -55 -5 -58 -11 -4 -6 -13 -8 -20 -6 -6 3 -23 -5
-36 -17 -34 -31 -54 -37 -76 -21 -22 17 -34 19 -30 4 4 -21 -30 -34 -61 -23
-25 10 -29 8 -39 -12 -8 -18 -7 -27 8 -43 13 -14 15 -21 6 -24 -9 -3 -9 -7 1
-19 27 -33 -23 -88 -81 -88 -12 0 -38 -14 -57 -30 -29 -24 -32 -31 -20 -39 12
-8 9 -14 -14 -35 -23 -19 -33 -22 -51 -14 -19 8 -30 1 -86 -55 -63 -63 -159
-136 -159 -120 0 4 4 15 10 23 5 9 5 19 -1 26 -6 7 -4 16 6 24 14 11 13 14 -2
27 -10 8 -12 12 -5 8 17 -9 15 20 -2 34 -25 21 -27 51 -3 61 12 5 18 9 13 9
-5 1 1 12 13 25 18 19 22 31 17 51 -4 16 -2 33 5 41 9 12 8 19 -7 37 -11 12
-26 35 -34 50 -8 16 -24 39 -36 52 -12 13 -19 27 -15 31 3 4 -6 4 -21 0 -21
-5 -28 -2 -33 13 -3 11 -13 22 -21 25 -8 3 -12 10 -9 16 4 6 11 8 16 4 6 -3 5
3 -3 15 -17 27 -34 27 -41 -1 -4 -12 -9 -19 -12 -16 -4 3 -2 15 4 27 14 25 6
29 -48 23 -32 -3 -45 -9 -48 -23 -7 -26 -22 -24 -33 4 -5 12 -9 16 -9 10 -1
-7 -24 -24 -52 -39 -44 -22 -50 -29 -46 -50 2 -13 0 -24 -5 -24 -5 0 -7 -10
-4 -22 3 -13 3 -17 0 -10 -3 6 -12 12 -20 12 -9 0 -13 -4 -9 -9 9 -16 13 -71
4 -65 -5 3 -9 0 -9 -7 0 -7 -3 -9 -7 -6 -3 4 -12 2 -20 -4 -9 -9 -13 -8 -13 0
0 7 -9 9 -25 5 -19 -5 -24 -3 -20 8 4 11 -2 13 -29 10 -30 -4 -37 0 -60 34
-14 21 -26 33 -26 27 0 -7 4 -14 9 -18 19 -11 9 -70 -17 -97 -31 -34 -51 -36
-53 -5 -1 12 -3 29 -4 37 -1 8 -3 20 -4 27 0 7 -11 17 -22 24 -15 8 -19 8 -15
0 4 -6 1 -11 -8 -11 -18 0 -31 -57 -21 -89 8 -27 -6 -27 -23 -1 -18 29 -36 8
-40 -45 -6 -87 -7 -95 -15 -95 -5 0 -6 -4 -3 -9 7 -11 44 -3 52 11 3 5 1 14
-5 21 -7 9 -5 16 9 24 14 10 21 9 30 -2 7 -8 9 -15 4 -15 -15 0 -8 -61 7 -70
9 -6 18 -2 27 13 11 18 12 19 6 2 -4 -11 -7 -32 -8 -47 -1 -22 -5 -27 -18 -22
-20 6 -25 -12 -5 -19 17 -6 -3 -38 -31 -48 -16 -6 -22 -5 -22 6 0 8 7 15 15
15 8 0 15 6 15 14 0 19 -20 32 -20 14 -1 -23 -30 25 -30 49 0 31 -11 29 -40
-7 -29 -33 -46 -40 -30 -10 8 16 8 20 -4 20 -7 0 -16 7 -20 15 -3 8 -15 15
-26 15 -18 0 -20 4 -14 23 4 12 7 29 8 37 1 8 7 21 14 28 15 16 16 32 2 32 -5
0 -9 -3 -7 -7 1 -5 -3 -8 -8 -8 -6 0 -9 6 -9 13 3 19 -6 15 -29 -14 l-21 -27
-17 22 c-10 13 -23 19 -33 15 -19 -7 -20 6 -4 41 6 14 19 25 28 25 11 0 20 10
22 25 5 22 3 24 -21 18 -35 -8 -52 -23 -49 -42 3 -24 -19 -60 -73 -117 -43
-46 -48 -57 -55 -113 -4 -37 -12 -65 -21 -69 -8 -5 -15 -15 -16 -23 -2 -8 -6
-19 -10 -26 -4 -6 -3 -14 3 -18 5 -3 10 -40 10 -81 0 -43 4 -74 10 -74 6 0 10
-16 10 -35 0 -21 9 -48 22 -66 19 -25 20 -33 10 -49 -11 -17 -10 -20 7 -20 11
0 23 -6 28 -12 11 -19 13 -72 2 -79 -6 -3 -11 -19 -12 -35 -2 -25 2 -30 36
-38 24 -6 37 -15 37 -26 0 -9 11 -22 25 -28 14 -6 25 -16 25 -22 0 -13 57 -7
72 8 12 12 57 -1 70 -21 6 -9 10 -9 16 1 6 9 14 6 32 -10 l25 -23 -34 -5 c-43
-6 -49 -22 -18 -46 12 -11 26 -24 30 -31 10 -15 -8 -59 -38 -95 -14 -16 -25
-38 -25 -49 0 -27 -52 -25 -89 2 -37 27 -62 15 -26 -13 42 -33 33 -53 -22 -48
-26 2 -28 -3 -13 -30 6 -12 31 -23 65 -31 32 -7 55 -18 55 -25 0 -7 9 -18 20
-24 22 -12 40 -1 53 33 4 10 17 17 32 17 14 0 25 5 25 10 0 6 7 10 15 10 8 0
15 -4 15 -10 0 -5 -5 -9 -12 -7 -19 4 -21 -29 -2 -47 19 -20 10 -33 -26 -38
-17 -2 -26 -10 -28 -26 -4 -25 10 -29 27 -8 6 8 25 16 41 18 25 4 30 1 35 -24
8 -33 20 -37 28 -8 8 30 27 24 27 -9 0 -16 6 -32 13 -34 8 -4 8 -8 2 -14 -6
-4 -11 -20 -13 -35 -3 -24 1 -27 45 -38 26 -6 73 -15 103 -19 86 -13 119 -22
127 -35 6 -9 66 -54 121 -92 2 -1 5 -9 6 -18 3 -20 36 -56 51 -56 7 0 29 -11
50 -25 27 -19 56 -28 104 -32 36 -3 78 -12 93 -19 72 -37 115 -45 225 -44 39
0 53 -3 53 -14 0 -22 28 -39 73 -45 28 -4 42 -11 42 -21 0 -8 6 -15 13 -14 6
1 18 2 26 3 8 0 38 34 67 74 94 128 127 155 156 126 12 -12 12 -13 -40 -74
-33 -38 -77 -118 -77 -139 0 -5 -12 -23 -27 -39 -26 -26 -27 -29 -11 -41 14
-10 30 -11 70 -3 29 6 76 10 105 9 42 -1 51 1 46 13 -4 11 2 15 23 15 39 0
155 80 187 129 68 103 64 212 -22 503 -42 142 -60 181 -92 199 -19 10 -26 29
-10 29 20 0 74 -70 96 -124 13 -33 29 -63 36 -67 6 -4 9 -11 6 -16 -4 -6 7
-57 23 -113 60 -209 61 -314 6 -432 -33 -70 -43 -83 -105 -126 -38 -27 -66
-53 -63 -58 9 -12 69 -54 78 -54 4 0 -1 9 -10 19 -22 24 -3 40 22 18 9 -8 27
-18 40 -21 13 -5 22 -15 22 -27 0 -12 7 -19 20 -19 17 0 18 -3 10 -26 -13 -34
-13 -36 10 -32 12 2 20 7 20 11 -1 12 27 37 43 37 33 0 117 -43 117 -60 0 -25
46 -31 98 -13 39 13 48 13 83 -1 49 -20 73 -20 39 -1 -36 21 -7 18 48 -4 26
-11 67 -24 92 -30 25 -6 31 -8 13 -6 -18 2 -35 0 -38 -6 -4 -5 -3 -8 2 -7 4 1
29 -6 56 -16 26 -11 50 -16 54 -12 3 3 1 6 -5 6 -7 0 -12 4 -12 9 0 12 143
-37 152 -52 4 -6 4 -15 2 -19 -3 -4 1 -6 8 -3 7 3 30 -10 50 -29 36 -33 38
-34 48 -15 6 11 15 17 19 15 16 -10 44 34 51 79 5 35 4 45 -7 45 -7 0 -16 -8
-20 -17 -15 -42 -25 -45 -53 -16 -14 15 -35 33 -46 39 -19 11 -19 12 0 33 11
11 27 21 38 21 10 0 18 5 18 10 0 18 66 11 84 -9 11 -12 14 -21 7 -26 -6 -3
-11 -1 -11 4 0 6 -4 11 -10 11 -18 0 -11 -25 11 -38 16 -10 18 -17 10 -25 -6
-6 -11 -16 -11 -21 0 -6 20 11 43 37 24 26 51 47 59 47 8 0 23 9 33 20 10 11
21 20 25 20 9 0 32 -51 25 -58 -3 -3 -5 0 -5 6 0 7 -4 12 -10 12 -5 0 -9 -10
-8 -22 2 -42 -2 -48 -27 -48 -19 0 -29 -9 -42 -35 -9 -19 -23 -35 -30 -35 -7
0 -13 -4 -13 -10 0 -5 7 -7 15 -4 8 4 15 1 15 -6 0 -6 5 -8 12 -4 8 5 9 1 4
-12 -6 -15 -5 -17 5 -7 21 21 39 15 39 -12 0 -23 -2 -24 -20 -15 -14 8 -20 8
-20 0 0 -12 -69 -10 -76 2 -9 14 -44 9 -44 -6 0 -7 -9 -16 -21 -19 -20 -5 -20
-7 10 -36 18 -17 35 -31 39 -31 5 0 13 -5 20 -12 6 -6 22 -13 34 -15 12 -2 27
-9 33 -15 7 -7 2 -9 -20 -4 -21 4 -25 3 -15 -3 8 -5 30 -11 47 -13 18 -2 39
-12 46 -22 11 -14 35 -19 134 -25 97 -7 128 -12 155 -29 78 -50 167 -90 213
-97 62 -10 353 -13 367 -4 6 4 18 0 26 -8 14 -14 17 -14 27 1 15 19 25 21 25
4 1 -7 8 -22 18 -33 14 -17 38 -23 127 -33 167 -19 482 -25 489 -9 5 9 7 9 12
-1 3 -6 10 -9 15 -6 6 3 16 0 24 -6 8 -6 18 -9 23 -6 8 5 142 8 222 5 96 -4
110 0 128 33 9 18 31 45 49 61 17 16 29 36 26 43 -7 20 4 17 27 -6 24 -24 36
-25 44 -5 3 8 1 15 -4 15 -6 0 -10 13 -10 28 0 15 -4 32 -10 38 -7 7 1 9 23 6
47 -5 68 21 41 49 -19 19 -80 29 -100 17 -5 -3 -14 0 -21 7 -9 10 -6 15 13 24
14 6 23 14 21 19 -3 4 5 8 16 8 44 3 76 9 76 14 0 3 -2 15 -5 26 -5 19 -9 20
-30 10 -13 -6 -24 -14 -24 -18 0 -5 -11 -8 -25 -8 -14 0 -25 -6 -26 -12 0 -7
-5 -2 -10 11 -8 20 -5 29 13 49 27 28 75 55 87 48 4 -3 5 14 1 38 -6 44 -6 44
23 42 22 -2 31 3 35 16 2 10 8 18 13 18 5 0 9 5 9 10 0 6 -9 10 -20 10 -14 0
-18 -5 -13 -17 4 -9 -12 4 -33 28 -37 40 -84 133 -84 165 0 10 -6 11 -25 4
-33 -12 -33 4 0 26 30 20 38 44 26 78 -7 17 -7 26 0 26 6 0 6 6 -1 19 -5 11
-7 27 -4 36 11 28 57 -33 51 -68 -5 -35 4 -41 39 -22 33 17 44 12 44 -19 0
-22 17 -46 32 -46 4 0 8 9 8 19 0 13 9 21 30 26 16 4 33 11 37 17 4 7 0 9 -9
5 -19 -7 -38 11 -38 35 0 11 -18 30 -45 46 -38 23 -45 32 -46 62 -1 19 -3 55
-4 79 -3 32 2 52 15 68 10 13 22 38 25 56 13 63 18 69 68 92 71 32 137 108
137 160 0 8 12 21 28 28 33 14 82 64 82 83 0 8 4 14 8 14 5 0 21 25 37 55 15
31 32 58 37 61 5 3 7 12 4 20 -3 8 -2 14 3 14 5 0 12 11 15 24 5 21 94 118
174 189 32 28 56 29 45 2 -6 -17 22 -21 32 -5 14 23 43 30 58 15 14 -13 19
-13 50 0 47 19 50 27 48 103 -2 53 -7 71 -27 95 -31 37 -26 70 20 136 39 56
48 78 35 87 -6 3 -9 25 -7 48 2 29 -1 40 -10 38 -17 -3 -83 25 -81 35 5 28 -4
42 -31 48 -23 5 -30 12 -30 30 0 37 -18 77 -32 69 -8 -5 -10 3 -5 28 7 46 -6
67 -32 51 -10 -6 -21 -9 -25 -6 -11 12 7 57 32 78 25 22 25 22 10 71 -9 27
-19 64 -23 82 -11 52 -29 43 -39 -19 -3 -20 -9 -47 -14 -60 -5 -13 -6 -33 -1
-44 15 -38 10 -65 -11 -65 -12 0 -24 -10 -30 -22 -9 -23 -9 -23 -9 2 0 14 6
43 14 65 25 68 17 93 -30 100 -5 0 -9 7 -7 14 4 19 -37 61 -75 77 -18 8 -50
14 -72 14 -32 0 -40 -4 -45 -22 -5 -19 -8 -21 -16 -8 -7 10 -10 11 -10 2 0
-21 -81 29 -132 83 -27 27 -48 57 -48 67 0 21 -25 64 -52 91 -16 16 -20 16
-48 2 -22 -11 -44 -14 -85 -9 -49 6 -55 5 -55 -12 0 -13 -3 -15 -11 -7 -6 6
-18 9 -26 6 -8 -3 -18 -1 -22 6 -4 6 -22 15 -39 21 -20 5 -30 5 -27 -1 4 -5 2
-9 -3 -9 -5 0 -12 -9 -15 -21 -3 -12 -10 -18 -16 -14 -16 10 -13 42 5 49 22 8
9 23 -26 31 -17 4 -30 12 -30 18 0 8 -4 7 -9 -2 -7 -11 -10 -10 -15 6 -6 18
-25 22 -56 14 -3 0 12 -13 33 -28 20 -14 37 -33 37 -42 1 -13 3 -12 11 3 9 15
13 16 20 5 15 -24 10 -45 -11 -46 -14 -1 -24 7 -30 22 -10 26 -30 42 -30 24 0
-7 -8 -5 -21 7 -21 19 -22 19 -16 -1 4 -11 3 -26 -2 -33 -6 -10 -10 -7 -15 12
-6 25 -7 26 -31 10 -18 -12 -39 -15 -73 -12 -26 3 -41 3 -34 1 20 -8 13 -21
-9 -16 -11 3 -18 11 -15 19 3 8 0 11 -10 7 -7 -3 -14 0 -14 6 0 6 -11 17 -25
23 -33 15 -32 22 10 37 23 8 37 21 41 37 3 13 13 24 21 24 11 0 14 7 11 25 -3
13 -1 22 3 19 5 -3 11 7 15 21 3 14 12 25 19 25 7 0 21 3 30 6 11 5 18 0 22
-14 3 -13 16 -23 34 -27 16 -4 27 -11 23 -16 -3 -5 0 -9 7 -9 7 0 9 -10 6 -26
-3 -20 -1 -24 12 -19 9 4 29 11 44 15 15 5 39 19 51 31 21 20 22 25 9 37 -12
12 -12 16 -1 23 7 5 23 9 35 9 15 0 20 -5 16 -18 -3 -15 1 -17 29 -16 18 2 51
8 73 14 22 6 46 12 52 12 18 2 27 36 13 52 -6 8 -10 18 -9 22 3 21 -2 26 -16
14 -12 -10 -15 -10 -15 4 0 18 -16 22 -22 5 -2 -6 -28 -19 -58 -30 -63 -22
-63 -22 -55 -9 3 6 -3 10 -14 10 -12 0 -21 7 -21 15 0 8 9 15 19 15 11 0 23 5
27 11 4 7 23 9 50 5 38 -5 45 -3 55 17 15 28 30 38 48 32 7 -3 20 0 27 6 8 6
14 8 14 4 0 -4 7 -2 15 5 8 7 13 16 10 20 -8 14 55 20 75 8 14 -9 23 -9 30 -2
8 8 2 13 -24 18 -19 4 -39 14 -44 23 -6 9 -27 17 -53 19 -62 6 -99 22 -134 59
l-30 32 -69 -8 c-37 -5 -73 -13 -80 -18 -11 -9 -136 18 -136 30 0 12 116 48
195 59 44 7 100 22 125 33 57 26 85 28 135 8 59 -22 63 -28 57 -96 -5 -78 4
-86 102 -88 41 -1 78 -6 82 -10 4 -4 25 -7 47 -7 22 0 79 -5 126 -12 75 -9
101 -9 187 7 54 9 107 22 116 27 25 12 82 -4 86 -25 4 -18 -3 -22 -60 -32 -21
-3 -38 -9 -38 -13 0 -4 17 -14 38 -23 20 -9 55 -24 76 -33 56 -25 134 -33 140
-15 15 44 11 53 -49 90 -33 20 -61 42 -63 50 -2 10 23 20 85 35 49 12 106 30
127 40 36 17 40 23 40 59 1 34 5 42 31 54 43 20 61 38 85 83 41 79 22 106 -82
115 -42 4 -61 11 -68 23 -8 15 -16 17 -50 9 -21 -5 -60 -19 -85 -31 -61 -30
-74 -13 -40 50 49 92 -11 106 -127 31 -73 -47 -88 -49 -88 -10 0 16 -6 31 -13
34 -17 6 -21 66 -6 94 28 52 -23 66 -104 27 -35 -17 -37 -17 -56 0 -19 17 -21
17 -60 -15 -22 -19 -52 -55 -66 -81 -15 -27 -31 -48 -38 -48 -6 0 -23 11 -37
25 l-27 26 -49 -39 c-57 -45 -87 -82 -137 -173 -44 -80 -59 -94 -85 -80 -14 7
-24 6 -38 -4 -12 -8 -46 -13 -91 -13 -71 1 -72 1 -83 31 -5 16 -10 37 -10 46
0 42 -33 99 -68 118 -34 17 -37 23 -37 62 0 46 -21 71 -60 71 -12 0 -29 6 -40
13 -18 14 -18 45 1 115 5 18 2 22 -15 22 -12 0 -36 8 -54 17 -44 23 -159 44
-174 32 -6 -6 -14 -31 -18 -57 -10 -71 -30 -143 -38 -136 -4 4 -7 3 -8 -2 -7
-92 -23 -167 -37 -172 -5 -1 -7 -13 -5 -27 3 -13 -1 -40 -7 -61 -12 -35 -11
-39 9 -52 33 -23 25 -32 -29 -32 -55 0 -59 7 -36 52 22 43 54 138 66 198 7 30
22 87 36 126 13 39 26 89 30 110 3 22 8 42 10 46 21 33 -73 63 -106 33 -17
-16 -21 -16 -42 -1 -32 23 -95 21 -108 -3 -17 -33 -11 -77 17 -133 26 -50 65
-248 55 -277 -8 -24 -39 -8 -75 40 -43 57 -90 89 -128 89 -43 0 -54 23 -40 78
7 26 15 66 18 90 5 45 -7 54 -47 32 -26 -14 -43 -5 -64 35 -10 19 -30 44 -43
57 l-25 23 -29 -33 c-24 -27 -29 -41 -29 -83 0 -28 5 -59 11 -71 6 -11 8 -23
4 -26 -15 -16 -43 23 -85 115 -47 105 -68 137 -110 166 -35 24 -47 21 -55 -12
-3 -16 -12 -32 -20 -35 -15 -5 -70 52 -97 103 -19 34 -38 34 -38 0 0 -12 -7
-19 -19 -19 -23 0 -31 18 -20 46 8 23 8 23 157 45 45 6 82 16 82 20 0 5 18 9
40 9 22 0 55 6 73 14 18 7 47 11 64 9 28 -5 33 -2 39 22 4 16 10 22 14 16 4
-8 12 -5 24 7 14 17 23 18 69 10 28 -5 61 -12 72 -17 40 -16 92 -31 111 -31
10 0 34 -9 51 -20 25 -15 53 -20 114 -21 79 -1 83 -3 120 -38 35 -32 39 -41
39 -86 1 -39 3 -46 11 -32 6 10 11 32 11 48 1 36 71 114 94 105 8 -3 14 -1 14
4 0 6 11 10 25 10 14 0 25 5 25 10 0 6 5 10 11 10 6 0 28 18 49 40 26 27 46
40 64 40 16 0 25 4 21 10 -3 6 0 10 8 10 8 0 24 9 37 20 13 11 29 20 36 20 7
0 15 6 17 13 4 9 8 9 15 -2 6 -8 30 -17 53 -22 86 -15 178 -38 200 -49 12 -7
60 -25 106 -41 46 -15 90 -34 98 -41 32 -29 45 -38 52 -38 4 0 25 -16 46 -35
21 -19 44 -35 52 -35 7 0 22 -10 32 -23 22 -28 173 -107 205 -107 12 0 41 -8
63 -18 22 -10 69 -26 105 -36 36 -10 90 -29 121 -42 31 -13 65 -24 75 -24 11
0 43 -11 71 -25 90 -41 82 -8 -26 105 -33 35 -61 69 -61 76 0 6 -39 54 -88
105 -48 52 -101 112 -117 134 -16 22 -34 44 -39 48 -13 9 -85 0 -101 -12 -18
-15 -160 -51 -201 -51 -50 0 -127 36 -197 92 -30 23 -66 51 -80 62 -15 10 -29
27 -32 37 -4 10 -17 22 -31 25 -31 8 -83 68 -91 105 -3 17 -12 29 -22 30 -9 1
-27 2 -41 2 -20 2 -26 8 -28 33 -2 24 2 33 23 44 14 7 25 19 25 25 0 6 14 24
31 41 34 32 59 74 59 99 0 10 -10 15 -32 15 -49 1 -184 26 -217 41 -17 8 -32
21 -34 31 -3 11 -15 18 -29 18 -24 0 -112 38 -93 40 23 3 -33 19 -66 19 -21 1
-48 10 -63 22 -17 14 -51 24 -98 30 -39 5 -76 13 -82 18 -6 5 -33 11 -59 13
-26 2 -47 7 -46 13 1 13 -69 43 -103 44 -16 1 -33 9 -40 21 -7 11 -17 20 -23
20 -6 0 -20 21 -32 48 -25 53 -95 132 -117 132 -8 0 -22 -21 -32 -47z m-611
-563 c7 -26 -77 -67 -99 -49 -21 18 -17 26 24 46 50 25 69 25 75 3z m921 -86
c3 -8 2 -12 -4 -9 -6 3 -10 10 -10 16 0 14 7 11 14 -7z m61 -84 c0 -36 -29
-33 -33 3 -3 23 0 28 15 25 12 -2 18 -12 18 -28z m-863 -332 c-6 -6 -15 -7
-22 -3 -8 5 -6 11 7 20 20 15 32 0 15 -17z m-1476 -123 c20 -8 44 -25 55 -39
10 -13 42 -33 71 -46 29 -12 55 -24 56 -25 8 -7 -53 -125 -65 -125 -7 0 -24
21 -38 48 -36 68 -80 127 -94 125 -6 -2 -16 -4 -23 -5 -19 -5 -34 48 -18 66
15 19 13 19 56 1z m1142 -215 c18 -16 38 -30 44 -32 24 -8 -3 -25 -33 -22 -37
5 -88 42 -88 67 -1 27 40 21 77 -13z m-136 -3 c3 -6 -5 -19 -19 -30 l-25 -20
-29 31 c-16 17 -29 34 -29 38 0 10 94 -7 102 -19z m286 -103 c28 -31 29 -34 9
-28 -29 8 -57 34 -57 51 0 22 15 15 48 -23z m780 -246 c-6 -18 -28 -21 -28 -4
0 9 7 16 16 16 9 0 14 -5 12 -12z m122 -277 c0 -5 -7 -11 -15 -15 -15 -5 -20
5 -8 17 9 10 23 9 23 -2z m1575 -51 c3 -5 -1 -10 -9 -10 -9 0 -16 5 -16 10 0
6 4 10 9 10 6 0 13 -4 16 -10z m-846 -166 c-6 -7 -15 -11 -21 -8 -5 3 -4 12 3
20 6 7 15 11 21 8 5 -3 4 -12 -3 -20z m-45 -3 c7 -10 -22 -37 -30 -28 -9 8 3
37 15 37 5 0 12 -4 15 -9z m-3154 -10 c0 -6 -4 -13 -10 -16 -5 -3 -10 1 -10 9
0 9 5 16 10 16 6 0 10 -4 10 -9z m2717 -60 c9 -11 22 -17 29 -14 13 5 74 -26
74 -38 0 -11 -24 -24 -40 -23 -36 3 -79 17 -75 24 2 4 -4 15 -15 25 -18 16
-20 16 -49 -1 -30 -18 -49 -15 -36 5 3 6 17 11 30 11 13 0 30 7 37 15 17 19
25 19 45 -4z m439 -23 c17 -13 12 -53 -8 -53 -9 0 -20 -3 -24 -7 -13 -14 -24
3 -24 36 0 18 3 35 6 39 7 6 33 -1 50 -15z m-66 -58 c0 -14 -14 -12 -28 2 -19
19 -14 30 8 18 11 -6 20 -15 20 -20z m166 8 c4 -7 3 -8 -4 -4 -7 4 -12 2 -12
-4 0 -6 -5 -8 -10 -5 -11 7 -4 25 10 25 5 0 12 -5 16 -12z m-534 -10 c-9 -9
-15 -9 -24 0 -9 9 -7 12 12 12 19 0 21 -3 12 -12z m-27 -38 c3 -5 1 -10 -4
-10 -6 0 -11 5 -11 10 0 6 2 10 4 10 3 0 8 -4 11 -10z m-60 -20 c3 -5 1 -10
-4 -10 -6 0 -11 5 -11 10 0 6 2 10 4 10 3 0 8 -4 11 -10z m181 -66 c-11 -7
-22 -11 -25 -8 -3 3 3 12 13 20 11 7 22 11 25 8 3 -3 -3 -12 -13 -20z m-3869
-161 c-3 -3 -11 -2 -17 2 -9 6 -9 10 1 16 14 8 27 -7 16 -18z m-167 -53 c0
-16 -38 -32 -46 -19 -7 12 12 29 34 29 6 0 12 -4 12 -10z m3970 -40 c-29 -8
-40 -3 -21 10 8 4 21 5 30 2 12 -5 10 -8 -9 -12z m365 -9 c3 -5 1 -12 -5 -16
-5 -3 -10 1 -10 9 0 18 6 21 15 7z m-3183 -33 c-15 -15 -24 -6 -16 16 5 12 10
14 17 7 8 -8 8 -14 -1 -23z m2952 13 c3 -5 -1 -11 -9 -14 -9 -4 -12 -1 -8 9 6
16 10 17 17 5z m-3169 -22 c0 -7 -8 -15 -17 -17 -18 -3 -25 18 -11 32 10 10
28 1 28 -15z m410 11 c3 -6 -1 -7 -9 -4 -18 7 -21 14 -7 14 6 0 13 -4 16 -10z
m-380 -19 c3 -5 1 -12 -5 -16 -5 -3 -10 1 -10 9 0 18 6 21 15 7z m3082 3 c-3
-3 -12 -4 -19 -1 -8 3 -5 6 6 6 11 1 17 -2 13 -5z m-3883 -18 c-3 -9 -12 -12
-22 -9 -15 6 -9 11 25 22 1 1 0 -5 -3 -13z m-544 -6 c0 -5 -4 -10 -10 -10 -5
0 -10 5 -10 10 0 6 5 10 10 10 6 0 10 -4 10 -10z m4595 -10 c3 -6 -1 -7 -9 -4
-18 7 -21 14 -7 14 6 0 13 -4 16 -10z m-3865 -10 c0 -5 -4 -10 -9 -10 -6 0
-13 5 -16 10 -3 6 1 10 9 10 9 0 16 -4 16 -10z m560 -5 c0 -8 -7 -15 -15 -15
-26 0 -18 20 13 29 1 1 2 -6 2 -14z m-733 -1 c-3 -3 -12 -4 -19 -1 -8 3 -5 6
6 6 11 1 17 -2 13 -5z m-55 -26 c-7 -7 -12 -8 -12 -2 0 14 12 26 19 19 2 -3
-1 -11 -7 -17z m4288 12 c0 -5 -2 -10 -4 -10 -3 0 -8 5 -11 10 -3 6 -1 10 4
10 6 0 11 -4 11 -10z m-4610 -20 c0 -5 -7 -10 -16 -10 -8 0 -12 5 -9 10 3 6
10 10 16 10 5 0 9 -4 9 -10z m5137 -13 c-3 -8 -26 -24 -51 -36 -25 -11 -46
-25 -46 -29 0 -4 16 -14 35 -21 75 -27 137 -140 83 -154 -24 -7 -38 -1 -38 15
0 5 7 8 15 4 19 -7 20 16 1 52 -9 17 -33 35 -65 49 -68 29 -71 23 -23 -56 8
-13 9 -21 2 -21 -6 0 -13 7 -16 15 -4 8 -12 15 -20 15 -9 0 -14 12 -14 35 0
34 -1 35 -40 35 -61 0 -100 -24 -100 -60 0 -20 -5 -30 -15 -30 -12 0 -14 -7
-9 -27 l6 -28 -31 32 c-25 26 -31 29 -34 15 -3 -9 -4 -5 -4 10 1 15 6 26 11
25 6 -1 15 8 21 21 14 32 107 75 165 77 44 1 95 26 125 61 11 12 37 23 44 18
2 -2 1 -9 -2 -17z m-4787 -22 c-17 -21 -30 -19 -30 4 0 11 8 21 18 23 22 5 27
-8 12 -27z m4490 15 c0 -5 -4 -10 -10 -10 -5 0 -10 5 -10 10 0 6 5 10 10 10 6
0 10 -4 10 -10z m-5100 -7 c0 -5 -5 -15 -10 -23 -8 -12 -10 -11 -10 8 0 12 5
22 10 22 6 0 10 -3 10 -7z m280 -3 c0 -5 -4 -10 -10 -10 -5 0 -10 5 -10 10 0
6 5 10 10 10 6 0 10 -4 10 -10z m4190 0 c0 -5 -4 -10 -10 -10 -5 0 -10 5 -10
10 0 6 5 10 10 10 6 0 10 -4 10 -10z m1120 0 c0 -5 -5 -10 -11 -10 -5 0 -7 5
-4 10 3 6 8 10 11 10 2 0 4 -4 4 -10z m-5350 -36 c11 -31 13 -33 24 -18 10 14
16 14 34 5 21 -11 21 -13 7 -41 -8 -16 -15 -36 -15 -45 0 -9 -4 -13 -10 -10
-16 10 -11 53 8 64 9 6 11 11 5 11 -7 0 -18 -9 -25 -20 -25 -40 -61 -10 -51
43 3 16 1 27 -6 27 -5 0 -8 -6 -5 -13 2 -7 -4 -13 -16 -14 -27 -2 -26 20 3 33
33 17 35 17 47 -22z m97 19 c-4 -3 -1 -13 5 -21 10 -12 9 -14 -7 -11 -25 5
-33 39 -9 39 10 0 14 -3 11 -7z m1063 -17 c0 -24 -17 -28 -23 -6 -3 13 0 20 9
20 8 0 14 -6 14 -14z m3456 -34 c-4 -3 -11 0 -16 8 -15 24 -11 33 6 15 9 -9
13 -19 10 -23z m34 28 c0 -5 -5 -10 -11 -10 -5 0 -7 5 -4 10 3 6 8 10 11 10 2
0 4 -4 4 -10z m-3632 -16 c8 -6 -11 -46 -34 -71 l-24 -26 -19 24 c-15 18 -16
27 -7 41 6 10 14 18 18 18 5 0 8 7 8 15 0 12 7 14 28 9 15 -4 29 -8 30 -10z
m-103 -33 c0 -26 -4 -37 -12 -34 -7 3 -13 9 -13 14 0 7 21 59 25 59 0 0 1 -17
0 -39z m3435 29 c0 -5 -4 -10 -10 -10 -5 0 -10 5 -10 10 0 6 5 10 10 10 6 0
10 -4 10 -10z m-3902 -29 c-15 -24 -28 -27 -28 -6 0 13 31 38 38 30 2 -2 -3
-12 -10 -24z m4299 13 c-3 -3 -12 -4 -19 -1 -8 3 -5 6 6 6 11 1 17 -2 13 -5z
m-4363 -15 c-3 -5 -11 -9 -19 -9 -8 0 -16 4 -19 9 -3 5 5 9 19 9 14 0 22 -4
19 -9z m-246 -17 c6 -18 -15 -14 -22 4 -4 10 -1 14 6 12 6 -2 14 -10 16 -16z
m4812 8 c0 -5 -5 -10 -11 -10 -5 0 -7 5 -4 10 3 6 8 10 11 10 2 0 4 -4 4 -10z
m-4714 -48 c-6 -5 -36 23 -36 34 0 4 9 -1 20 -11 11 -10 18 -20 16 -23z m3794
19 c0 -6 -4 -13 -10 -16 -5 -3 -10 1 -10 9 0 9 5 16 10 16 6 0 10 -4 10 -9z
m310 -17 c0 -8 -4 -14 -10 -14 -5 0 -10 2 -10 4 0 2 -3 12 -6 20 -5 12 -2 15
10 10 9 -3 16 -12 16 -20z m-4895 7 c3 -5 2 -12 -3 -15 -5 -3 -9 1 -9 9 0 17
3 19 12 6z m125 -1 c0 -5 -2 -10 -4 -10 -3 0 -8 5 -11 10 -3 6 -1 10 4 10 6 0
11 -4 11 -10z m1465 1 c3 -5 1 -12 -5 -16 -5 -3 -10 1 -10 9 0 18 6 21 15 7z
m2913 -3 c-2 -6 -10 -14 -16 -16 -7 -2 -10 2 -6 12 7 18 28 22 22 4z m-4064
-13 c-4 -8 -11 -15 -16 -15 -6 0 -5 6 2 15 7 8 14 15 16 15 2 0 1 -7 -2 -15z
m121 5 c-3 -5 1 -10 10 -10 8 0 19 -8 22 -17 4 -10 13 -24 20 -31 7 -7 13 -21
13 -31 0 -9 8 -26 18 -37 20 -21 31 -111 13 -100 -6 4 -11 0 -11 -9 0 -13 -8
-16 -32 -13 -26 2 -32 -1 -30 -14 2 -12 -7 -19 -32 -24 -20 -3 -41 -12 -47
-20 -10 -12 -9 -13 5 -8 9 3 16 2 16 -4 0 -12 -29 -24 -41 -16 -5 3 -9 0 -9
-5 0 -10 -68 -6 -78 4 -2 2 -5 22 -5 44 -2 41 -6 45 -40 41 -31 -3 -66 27 -60
50 3 13 11 19 19 16 8 -3 14 1 14 9 0 8 9 15 21 15 11 0 18 4 14 9 -3 6 3 15
14 20 28 15 41 14 35 -4 -4 -8 -2 -15 4 -15 13 0 23 28 13 35 -14 8 -1 45 15
45 8 0 14 10 14 22 l0 22 16 -22 c8 -12 12 -27 9 -32 -3 -6 3 -10 14 -10 11 0
23 5 27 12 4 7 3 8 -4 4 -7 -4 -12 -3 -12 3 0 5 5 13 10 16 6 3 7 18 4 33 -4
21 -3 24 5 12 10 -13 13 -13 22 3 5 9 12 17 15 17 3 0 2 -4 -1 -10z m1125 -10
c0 -5 -2 -10 -4 -10 -3 0 -8 5 -11 10 -3 6 -1 10 4 10 6 0 11 -4 11 -10z
m-883 -22 c-3 -8 -6 -5 -6 6 -1 11 2 17 5 13 3 -3 4 -12 1 -19z m4867 6 c9
-22 8 -24 -9 -18 -8 4 -15 12 -15 20 0 19 16 18 24 -2z m-5474 -28 c0 -5 -7
-3 -15 4 -8 7 -12 17 -9 22 7 10 24 -9 24 -26z m1780 30 c0 -3 -4 -8 -10 -11
-5 -3 -10 -1 -10 4 0 6 5 11 10 11 6 0 10 -2 10 -4z m2810 -4 c0 -5 -11 -14
-25 -20 -19 -9 -24 -9 -22 1 3 18 47 36 47 19z m-3698 -47 c-2 -10 2 -22 10
-27 10 -8 9 -9 -4 -5 -9 3 -19 1 -22 -6 -2 -7 -5 5 -5 26 -1 27 3 37 12 34 6
-2 11 -12 9 -22z m3568 9 c0 -14 -3 -14 -15 -4 -8 7 -15 14 -15 16 0 2 7 4 15
4 8 0 15 -7 15 -16z m625 6 c-3 -5 -10 -10 -16 -10 -5 0 -9 5 -9 10 0 6 7 10
16 10 8 0 12 -4 9 -10z m777 -72 c-2 -40 -4 -95 -5 -123 -2 -56 -11 -77 -31
-69 -22 9 -36 55 -33 111 2 41 9 59 30 81 15 15 27 35 27 43 0 13 8 29 15 29
1 0 -1 -33 -3 -72z m-1377 22 c-3 -5 -11 -10 -16 -10 -6 0 -7 5 -4 10 3 6 11
10 16 10 6 0 7 -4 4 -10z m-4750 -10 c3 -5 1 -10 -4 -10 -6 0 -11 5 -11 10 0
6 2 10 4 10 3 0 8 -4 11 -10z m102 -7 c5 -13 -25 -26 -38 -17 -6 3 -5 11 2 20
13 16 31 14 36 -3z m1956 -20 c12 -10 17 -12 12 -4 -5 9 -4 12 4 10 7 -3 12
-8 11 -12 0 -5 11 -18 26 -30 25 -19 26 -21 8 -28 -28 -11 -34 -10 -34 5 0 8
-13 17 -30 21 -34 7 -44 19 -36 40 7 19 15 19 39 -2z m-417 -18 c7 -30 20 -32
27 -5 3 11 10 20 16 20 8 0 7 -7 -1 -22 -29 -52 -58 -74 -58 -45 0 7 -9 23
-21 35 l-20 23 28 -6 c15 -3 22 -2 16 1 -15 7 -17 24 -3 24 5 0 12 -11 16 -25z
m-1496 -64 c-10 -19 -11 -20 -30 -4 -25 21 -27 48 -4 39 14 -5 15 -4 5 8 -7 8
-10 20 -6 27 5 7 14 0 27 -19 15 -24 17 -35 8 -51z m5433 59 c3 -11 4 -20 3
-20 -1 0 -9 9 -19 20 -13 15 -14 20 -3 20 7 0 16 -9 19 -20z m-4358 -9 c-3 -6
-11 -11 -17 -11 -6 0 -6 6 2 15 14 17 26 13 15 -4z m-1148 -28 c-11 -10 -26 8
-20 23 5 15 7 14 15 -1 6 -9 7 -19 5 -22z m208 17 c3 -5 1 -10 -4 -10 -6 0
-11 5 -11 10 0 6 2 10 4 10 3 0 8 -4 11 -10z m1425 6 c0 -3 -4 -8 -10 -11 -5
-3 -10 -1 -10 4 0 6 5 11 10 11 6 0 10 -2 10 -4z m-578 -18 c-14 -14 -44 -20
-36 -7 3 5 10 7 15 4 5 -4 9 -1 9 4 0 6 5 11 12 11 9 0 9 -3 0 -12z m598 -2
c0 -3 -4 -8 -10 -11 -5 -3 -10 -1 -10 4 0 6 5 11 10 11 6 0 10 -2 10 -4z m272
-10 c5 3 16 -4 25 -15 11 -17 18 -19 28 -11 7 6 16 7 19 2 8 -13 -5 -52 -16
-46 -5 3 -20 -3 -32 -15 -22 -20 -24 -21 -52 -5 l-29 16 29 -5 c38 -6 56 1 49
19 -3 8 -10 11 -16 7 -5 -3 -7 -1 -4 4 7 12 -16 36 -26 27 -3 -3 -3 4 0 17 4
13 8 18 11 11 2 -7 8 -9 14 -6z m-1795 -18 c-3 -8 -6 -5 -6 6 -1 11 2 17 5 13
3 -3 4 -12 1 -19z m1387 -13 c-4 -8 -10 -12 -15 -9 -11 6 -2 24 11 24 5 0 7
-7 4 -15z m3906 -1 c0 -2 -9 -4 -20 -4 -11 0 -20 4 -20 9 0 5 9 7 20 4 11 -3
20 -7 20 -9z m-3740 -4 c0 -5 -5 -10 -11 -10 -5 0 -7 5 -4 10 3 6 8 10 11 10
2 0 4 -4 4 -10z m-775 -20 c10 -11 14 -20 9 -20 -12 1 -44 25 -44 34 0 12 17
6 35 -14z m-678 -4 c-18 -14 -17 -15 3 -21 17 -5 19 -10 9 -21 -8 -10 -16 -11
-31 -3 -18 10 -19 8 -13 -13 4 -12 11 -28 16 -34 9 -11 2 -24 -13 -24 -5 0 -6
5 -2 12 4 7 3 8 -4 4 -15 -9 -75 51 -66 66 4 7 9 5 15 -3 7 -11 9 -10 9 5 0
16 2 16 16 6 13 -11 16 -10 21 8 3 11 15 23 27 25 11 2 23 5 26 5 3 1 -3 -5
-13 -12z m631 -11 c-3 -3 -9 2 -12 12 -6 14 -5 15 5 6 7 -7 10 -15 7 -18z
m612 9 c0 -2 -7 -4 -15 -4 -8 0 -15 4 -15 10 0 5 7 7 15 4 8 -4 15 -8 15 -10z
m165 -16 c-20 -16 -29 -18 -38 -9 -9 9 -9 11 3 6 9 -3 21 3 29 14 8 11 18 18
23 15 5 -3 -3 -15 -17 -26z m-840 13 c3 -5 1 -12 -5 -16 -5 -3 -10 1 -10 9 0
18 6 21 15 7z m562 -13 c-3 -8 -6 -5 -6 6 -1 11 2 17 5 13 3 -3 4 -12 1 -19z
m-497 -22 c9 -12 8 -15 -9 -13 -21 1 -26 8 -14 20 9 9 9 9 23 -7z m228 -16
c15 -24 8 -40 -17 -40 -26 0 -31 9 -19 36 14 29 20 30 36 4z m-168 -25 c-7 -8
-16 -15 -21 -15 -13 0 -6 23 11 37 19 15 26 -2 10 -22z m1050 25 c0 -5 -4 -10
-10 -10 -5 0 -10 5 -10 10 0 6 5 10 10 10 6 0 10 -4 10 -10z m-1405 -10 c3 -5
1 -10 -4 -10 -6 0 -11 5 -11 10 0 6 2 10 4 10 3 0 8 -4 11 -10z m1439 2 c3 -5
-1 -9 -9 -9 -8 0 -12 4 -9 9 3 4 7 8 9 8 2 0 6 -4 9 -8z m-994 -13 c0 -5 4 -8
9 -5 5 3 11 -1 15 -9 9 -26 -11 -26 -28 0 -9 14 -12 25 -6 25 5 0 10 -5 10
-11z m-180 -20 c0 -5 -4 -9 -8 -9 -5 0 -9 7 -9 15 0 8 4 12 9 9 4 -3 8 -9 8
-15z m1112 13 c3 9 8 9 19 -2 20 -18 12 -60 -11 -60 -10 0 -21 -7 -24 -16 -8
-22 -25 -8 -19 16 3 11 0 20 -6 20 -6 0 -11 -4 -11 -9 0 -16 -44 -21 -72 -8
-36 15 -35 23 3 31 17 3 28 9 25 14 -2 4 11 6 30 4 22 -3 34 0 34 8 0 10 3 10
14 1 11 -9 15 -9 18 1z m-1802 -23 c0 -5 -4 -9 -10 -9 -5 0 -10 7 -10 16 0 8
5 12 10 9 6 -3 10 -10 10 -16z m820 3 c0 -11 -8 -18 -20 -19 -14 -1 -20 4 -20
18 0 12 7 19 20 19 13 0 20 -7 20 -18z m-345 -11 c0 -23 -22 -24 -28 -1 -4 16
-1 20 11 18 9 -2 17 -10 17 -17z m1388 -14 c-3 -5 -10 -4 -15 1 -6 6 -7 16 -3
22 6 9 9 9 16 -1 4 -7 5 -17 2 -22z m4254 17 c-3 -3 -12 -4 -19 -1 -8 3 -5 6
6 6 11 1 17 -2 13 -5z m-5057 -15 c0 -5 5 -7 11 -3 13 8 29 -13 29 -37 0 -20
-33 -30 -72 -22 -39 8 -46 29 -18 53 25 22 50 26 50 9z m532 -11 c-2 -10 -8
-15 -13 -12 -5 3 -9 -1 -9 -8 0 -8 -3 -9 -8 -3 -12 16 -32 16 -38 0 -11 -27
-23 -16 -13 13 8 23 15 27 48 27 31 0 37 -3 33 -17z m-692 -13 c14 -16 10 -18
-14 -9 -9 3 -16 10 -16 15 0 14 16 11 30 -6z m494 -10 c3 -8 1 -15 -3 -15 -5
0 -11 7 -15 15 -3 8 -1 15 3 15 5 0 11 -7 15 -15z m256 -6 c0 -6 -4 -7 -10 -4
-5 3 -10 1 -10 -5 0 -6 -4 -8 -10 -5 -16 10 -11 21 10 22 11 1 20 -3 20 -8z
m248 -9 c7 0 10 5 7 10 -3 6 -1 10 4 10 6 0 11 -5 11 -11 0 -5 4 -8 9 -5 5 3
12 -1 15 -11 9 -22 -23 -55 -46 -47 -12 3 -18 0 -18 -10 0 -9 -7 -16 -16 -16
-14 0 -14 2 -3 16 17 20 19 55 6 74 -9 12 -9 13 3 3 8 -7 20 -13 28 -13z
m-458 -10 c0 -5 -2 -10 -4 -10 -3 0 -8 5 -11 10 -3 6 -1 10 4 10 6 0 11 -4 11
-10z m-25 -20 c-3 -5 -1 -10 6 -10 7 0 10 -2 7 -5 -3 -3 -13 -2 -22 1 -14 5
-15 9 -4 15 17 11 20 11 13 -1z m1295 0 c0 -5 -2 -10 -4 -10 -3 0 -8 5 -11 10
-3 6 -1 10 4 10 6 0 11 -4 11 -10z m2503 -20 c-3 -11 -9 -17 -14 -14 -14 8
-10 34 5 34 9 0 12 -7 9 -20z m-3833 0 c0 -5 -4 -10 -10 -10 -5 0 -10 5 -10
10 0 6 5 10 10 10 6 0 10 -4 10 -10z m1000 -34 c0 -5 -9 -1 -20 9 -11 10 -20
22 -20 26 0 5 9 1 20 -8 11 -10 20 -22 20 -27z m1070 -1 c-5 -20 -4 -33 1 -29
12 7 11 -7 -1 -26 -9 -13 -10 -13 -10 0 0 11 -2 12 -8 3 -9 -14 -23 -6 -40 25
-12 21 -10 23 17 28 17 4 30 9 29 13 -1 13 2 21 11 21 5 0 5 -15 1 -35z m2570
15 c0 -6 -15 -25 -33 -43 -18 -17 -47 -54 -65 -82 -17 -27 -44 -65 -59 -84
-40 -48 -73 -103 -73 -122 0 -16 -35 -59 -49 -59 -5 0 -11 17 -14 38 -3 20 -8
47 -12 58 -5 16 0 28 16 43 13 12 28 20 34 18 5 -2 20 7 33 20 12 13 26 22 31
19 16 -10 42 6 36 22 -3 8 3 25 14 36 27 28 12 58 -19 39 -26 -17 -41 -16 -34
1 3 8 1 17 -5 21 -6 3 -11 10 -11 16 0 14 38 11 43 -3 3 -8 7 -6 12 7 22 64
19 62 48 32 29 -28 57 -27 57 2 0 10 3 21 7 24 10 11 43 8 43 -3z m-885 -10
c3 -5 1 -10 -4 -10 -6 0 -11 5 -11 10 0 6 2 10 4 10 3 0 8 -4 11 -10z m-5006
-19 c9 -6 10 -11 2 -15 -13 -8 -31 1 -31 15 0 11 11 11 29 0z m2621 -12 c0 -6
-4 -7 -10 -4 -5 3 -10 11 -10 16 0 6 5 7 10 4 6 -3 10 -11 10 -16z m746 1 c0
-11 -4 -20 -8 -20 -10 0 -11 24 -1 33 9 9 9 10 9 -13z m-3096 -7 c0 -8 -33
-32 -45 -33 -5 0 -3 5 5 10 11 7 11 10 2 10 -7 0 -11 4 -8 8 5 9 46 13 46 5z
m-310 -33 c0 9 6 6 15 -10 18 -31 18 -40 3 -40 -27 1 -47 26 -41 50 6 22 7 23
14 4 5 -13 8 -14 9 -4z m3590 16 c0 -3 -4 -8 -10 -11 -5 -3 -10 -1 -10 4 0 6
5 11 10 11 6 0 10 -2 10 -4z m-136 -15 c4 -5 -3 -7 -14 -4 -18 5 -20 1 -18
-26 1 -17 7 -31 12 -31 5 0 7 -3 3 -6 -9 -9 -48 6 -41 17 3 5 10 6 16 3 7 -4
8 -2 4 4 -4 6 -14 8 -23 5 -13 -5 -15 -2 -10 11 4 10 7 22 7 27 0 12 57 12 64
0z m64 -19 c2 -7 -3 -10 -11 -6 -11 4 -16 -2 -19 -17 -3 -21 -4 -22 -18 -4
-12 15 -12 17 -1 10 11 -6 13 -4 8 7 -3 9 -3 18 -1 21 9 9 38 1 42 -11z
m-2010 -23 c3 -6 9 -6 18 2 24 19 27 2 5 -20 -12 -12 -21 -25 -21 -31 0 -11
-33 -13 -79 -4 -17 4 -31 13 -31 20 0 17 -16 18 -24 2 -3 -7 -5 -4 -3 7 1 11
8 20 14 20 7 0 17 5 23 11 13 13 94 8 98 -7z m112 17 c0 -2 -7 -7 -16 -10 -8
-3 -12 -2 -9 4 6 10 25 14 25 6z m4059 -7 c17 -6 31 -17 31 -25 0 -17 -2 -17
-46 1 -20 8 -33 19 -29 25 8 12 5 12 44 -1z m-3139 -39 c0 -5 -5 -10 -11 -10
-5 0 -7 5 -4 10 3 6 8 10 11 10 2 0 4 -4 4 -10z m-837 -37 c-3 -7 -12 -13 -20
-13 -10 0 -14 -7 -10 -20 3 -11 1 -20 -4 -20 -12 0 -11 37 1 45 6 4 8 10 6 14
-3 3 4 7 14 7 10 0 16 -6 13 -13z m-52 -86 c-5 -14 -7 -28 -4 -31 3 -3 1 -11
-4 -18 -6 -7 -14 -47 -17 -88 -4 -41 -8 -76 -10 -78 -3 -2 -1 -16 4 -32 5 -19
3 -37 -6 -55 -8 -16 -12 -42 -9 -66 3 -22 1 -39 -5 -39 -20 0 -30 42 -26 112
4 68 7 94 21 173 3 17 7 39 9 50 4 26 15 63 29 97 15 35 32 11 18 -25z m3514
33 c3 -6 -1 -7 -9 -4 -18 7 -21 14 -7 14 6 0 13 -4 16 -10z m-2385 -32 c0 -19
-2 -20 -10 -8 -13 19 -13 30 0 30 6 0 10 -10 10 -22z m-1655 -13 c-3 -35 -32
-64 -56 -58 -10 3 -19 10 -19 17 0 6 -3 21 -6 34 -5 18 -3 21 10 16 9 -3 16
-14 16 -24 0 -14 5 -17 22 -12 12 3 17 7 10 10 -8 2 -9 9 -2 23 15 27 29 24
25 -6z m2681 0 c-13 -14 -26 -25 -30 -25 -13 0 -5 30 12 39 32 19 41 11 18
-14z m-1371 -5 c5 -15 12 -18 36 -13 34 6 35 3 11 -24 -17 -20 -17 -20 -42 8
-27 30 -35 49 -21 49 5 0 12 -9 16 -20z m-1236 -36 c-10 -23 -13 -25 -16 -11
-3 10 1 25 8 33 17 21 21 11 8 -22z m3941 12 c0 -2 -7 -6 -15 -10 -8 -3 -15
-1 -15 4 0 6 7 10 15 10 8 0 15 -2 15 -4z m-3700 -16 c0 -5 -4 -10 -10 -10 -5
0 -10 5 -10 10 0 6 5 10 10 10 6 0 10 -4 10 -10z m3643 -9 c4 -1 14 -1 22 -1
10 0 15 -7 13 -17 -2 -12 3 -17 15 -15 9 2 17 -2 17 -8 0 -5 -5 -10 -11 -10
-6 0 7 -18 29 -39 51 -50 68 -101 53 -158 -6 -22 -18 -46 -26 -53 -8 -7 -15
-19 -15 -27 0 -8 -4 -12 -9 -9 -15 10 -61 -12 -61 -29 0 -12 -6 -15 -19 -10
-11 3 -22 1 -26 -5 -3 -5 -11 -10 -17 -10 -20 0 42 57 88 82 26 13 44 30 44
40 0 9 5 20 10 23 20 13 10 69 -18 100 -15 17 -35 43 -45 58 -19 29 -19 29
-33 8 -20 -28 -34 -27 -32 3 1 15 7 22 15 19 7 -3 13 -2 13 1 0 11 -52 56 -64
56 -6 0 -4 4 3 9 8 5 22 6 30 1 9 -4 19 -8 24 -9z m-3953 -1 c0 -5 -5 -10 -11
-10 -5 0 -7 5 -4 10 3 6 8 10 11 10 2 0 4 -4 4 -10z m1280 -4 c0 -3 -4 -8 -10
-11 -5 -3 -10 -1 -10 4 0 6 5 11 10 11 6 0 10 -2 10 -4z m2754 -18 c10 -39 7
-44 -9 -14 -17 33 -18 36 -6 36 5 0 11 -10 15 -22z m-5079 2 c3 -5 1 -10 -4
-10 -6 0 -11 5 -11 10 0 6 2 10 4 10 3 0 8 -4 11 -10z m3958 -14 c-4 -6 -8
-15 -9 -21 -4 -35 -7 -37 -15 -10 -5 19 -5 31 1 33 6 2 8 8 5 13 -4 5 1 6 9 3
9 -3 13 -11 9 -18z m-3893 -5 c0 -6 -4 -13 -10 -16 -5 -3 -10 1 -10 9 0 9 5
16 10 16 6 0 10 -4 10 -9z m3200 -78 c-11 -17 -11 -17 -6 0 3 10 6 24 7 30 0
9 2 9 5 0 3 -7 0 -20 -6 -30z m-3252 -10 c3 -47 -17 -67 -47 -46 -14 9 -20 21
-16 30 3 9 -3 22 -12 30 -17 13 -16 14 5 10 12 -3 22 -2 22 3 0 4 10 7 23 7
18 0 22 -6 25 -34z m5379 -18 c-11 -38 -27 -47 -27 -15 0 11 5 20 10 20 6 0
10 9 10 21 0 11 4 18 9 15 5 -4 5 -20 -2 -41z m88 25 c3 -5 -1 -10 -10 -10 -9
0 -13 5 -10 10 3 6 8 10 10 10 2 0 7 -4 10 -10z m-2195 -30 c0 -5 -5 -10 -11
-10 -5 0 -7 5 -4 10 3 6 8 10 11 10 2 0 4 -4 4 -10z m-700 -39 c0 -6 -5 -11
-11 -11 -5 0 -7 6 -3 13 6 9 5 9 -8 0 -8 -7 -18 -10 -21 -6 -4 3 -7 1 -7 -5 0
-18 -27 -3 -33 18 -4 14 0 17 19 15 14 -1 27 2 30 6 6 11 34 -14 34 -30z
m1397 -3 c-3 -7 -5 -2 -5 12 0 14 2 19 5 13 2 -7 2 -19 0 -25z m-1362 4 c-3
-3 -11 0 -18 7 -9 10 -8 11 6 5 10 -3 15 -9 12 -12z m85 14 c0 -3 -4 -8 -10
-11 -5 -3 -10 -1 -10 4 0 6 5 11 10 11 6 0 10 -2 10 -4z m747 -38 c2 -17 0
-19 -7 -8 -5 8 -6 18 -4 22 8 12 10 10 11 -14z m-2147 -12 c0 -8 11 -11 29 -8
31 4 53 -24 26 -34 -11 -5 -12 -11 -2 -31 8 -19 8 -26 -2 -32 -7 -5 -12 -11
-12 -15 3 -22 -1 -25 -15 -11 -16 16 -46 17 -44 2 0 -4 -9 -17 -22 -27 l-23
-19 33 2 c21 1 31 6 27 15 -7 20 13 14 25 -8 6 -11 17 -20 25 -20 9 0 14 -8
12 -22 -1 -17 4 -24 21 -26 12 -2 22 -7 22 -11 0 -11 -23 -31 -34 -31 -6 0 -2
7 8 15 11 8 15 15 8 15 -6 0 -18 -10 -26 -22 -9 -12 -19 -19 -22 -15 -4 4 0
15 10 26 16 17 15 19 -21 24 -22 4 -40 2 -44 -4 -5 -8 -9 -8 -13 0 -4 6 -12 9
-17 6 -5 -4 -12 1 -15 9 -3 9 -9 14 -13 12 -4 -3 -8 4 -8 15 -1 10 1 19 5 19
4 0 13 9 20 21 17 26 6 59 -19 59 -11 0 -19 7 -20 18 0 15 -1 15 -8 -2 -4 -11
-10 -15 -13 -10 -7 13 5 56 16 52 5 -2 14 6 20 17 6 11 17 25 25 31 17 13 61
6 61 -10z m973 -24 c19 -16 24 -48 6 -36 -6 3 -14 2 -18 -4 -10 -17 -57 -20
-53 -3 1 7 -3 19 -9 27 -9 11 -8 14 5 14 9 0 16 7 16 15 0 17 25 11 53 -13z
m683 21 c-10 -11 -37 -12 -30 -2 3 5 12 9 21 9 9 0 13 -3 9 -7z m-1033 -67
c31 -22 35 -36 11 -36 -17 0 -34 17 -55 54 -12 21 -5 18 44 -18z m252 4 c3 -5
3 -15 -1 -21 -6 -11 -23 6 -24 24 0 10 18 9 25 -3z m351 -14 c0 -13 -5 -22
-10 -18 -5 3 -2 -5 6 -17 9 -12 13 -31 10 -43 -4 -18 -3 -19 15 -7 17 10 24 9
43 -4 18 -13 28 -14 44 -5 19 10 20 10 7 -6 -8 -9 -20 -15 -28 -12 -7 3 -13 0
-13 -7 -1 -7 -5 -6 -13 4 -10 14 -14 14 -25 3 -15 -16 -42 -19 -42 -4 0 6 -5
10 -11 10 -7 0 -9 -10 -5 -25 6 -23 4 -25 -29 -25 -19 0 -35 -4 -35 -10 0 -5
-11 -10 -25 -10 -14 0 -25 -5 -25 -11 0 -6 -6 -9 -12 -6 -7 2 -12 9 -11 15 1
5 -7 18 -17 27 -14 13 -20 31 -20 60 0 48 16 73 48 78 13 2 28 10 34 18 8 12
9 11 5 -2 -3 -9 -2 -20 1 -26 10 -14 64 2 88 26 10 11 20 20 20 20 1 1 1 -10
0 -23z m615 1 c-10 -9 -11 -8 -5 6 3 10 9 15 12 12 3 -3 0 -11 -7 -18z m-684
-3 c-3 -3 -12 -4 -19 -1 -8 3 -5 6 6 6 11 1 17 -2 13 -5z m-129 -24 c-13 -20
-28 -27 -28 -12 0 10 22 32 32 32 5 0 3 -9 -4 -20z m522 5 c-7 -9 -15 -13 -17
-11 -7 7 7 26 19 26 6 0 6 -6 -2 -15z m-203 -8 c2 -3 -7 -11 -20 -20 -22 -14
-23 -14 -23 8 0 17 5 22 19 19 11 -2 21 -5 24 -7z m-1 -39 c-10 -6 -20 -7 -24
-3 -9 8 20 25 31 18 5 -3 2 -10 -7 -15z m292 -18 c-1 -18 -6 -30 -15 -30 -16
0 -17 32 -1 48 16 16 17 16 16 -18z m-686 5 c0 -5 -5 -11 -11 -13 -6 -2 -11 4
-11 13 0 9 5 15 11 13 6 -2 11 -8 11 -13z m2528 5 c0 -5 -2 -10 -4 -10 -3 0
-8 5 -11 10 -3 6 -1 10 4 10 6 0 11 -4 11 -10z m-2060 -12 c0 -4 -9 -8 -20 -8
-11 0 -20 4 -20 9 0 6 9 9 20 8 11 -1 20 -5 20 -9z m298 5 c-10 -2 -18 -9 -18
-14 0 -5 -4 -9 -10 -9 -24 0 -7 26 18 27 15 0 19 -1 10 -4z m937 -3 c-3 -5 0
-10 8 -10 17 0 30 -37 16 -46 -5 -3 -9 0 -9 6 0 6 -4 9 -9 6 -5 -3 -11 4 -14
16 -6 21 -1 38 9 38 3 0 2 -4 -1 -10z m-3217 -25 c-6 -14 -15 -25 -20 -25 -5
0 -7 4 -3 9 3 5 0 11 -7 14 -7 2 -5 3 4 2 9 -2 19 3 22 11 3 8 8 14 10 14 3 0
0 -11 -6 -25z m440 -23 c5 -16 -10 -15 -34 3 -18 14 -18 15 5 11 14 -1 27 -8
29 -14z m3743 -25 c-6 -15 -15 -27 -21 -27 -6 0 -9 4 -6 9 3 4 11 21 17 37 6
16 13 24 16 18 2 -6 -1 -23 -6 -37z m-4243 12 c2 -9 -4 -16 -13 -16 -10 0 -14
6 -10 15 3 10 0 12 -10 8 -8 -3 -15 -1 -15 5 0 17 44 6 48 -12z m1962 6 c-7
-8 -17 -15 -22 -15 -11 0 14 29 26 30 5 0 3 -7 -4 -15z m-60 1 c0 -9 -30 -14
-35 -6 -4 6 3 10 14 10 12 0 21 -2 21 -4z m361 -28 c9 -10 20 -18 25 -18 5 0
20 -12 33 -25 23 -24 48 -35 36 -15 -7 12 15 13 33 2 7 -5 10 -16 6 -25 -7
-19 20 -24 32 -6 4 8 9 7 15 -2 8 -11 11 -11 19 3 6 9 17 15 25 12 8 -4 15 -1
15 7 0 7 3 10 6 6 4 -3 13 0 21 8 16 16 38 21 29 6 -3 -5 9 -12 28 -15 19 -4
37 -13 40 -22 3 -8 13 -14 22 -12 12 2 17 -6 20 -31 5 -39 -12 -63 -57 -81
-17 -8 -29 -20 -29 -31 0 -11 -7 -19 -16 -19 -8 0 -12 -4 -9 -10 15 -24 -8
-30 -42 -10 -19 11 -38 18 -43 15 -5 -3 -10 -2 -12 3 -1 4 -20 18 -40 31 -21
12 -38 27 -38 32 0 4 -7 6 -15 2 -9 -3 -25 3 -36 13 -17 15 -24 16 -40 6 -13
-8 -19 -9 -19 -1 0 16 -43 47 -57 42 -20 -8 4 -33 31 -33 21 -1 21 -1 1 -16
-13 -11 -16 -18 -8 -21 7 -2 10 -10 7 -18 -3 -8 -12 -11 -20 -8 -8 3 -14 0
-14 -6 0 -6 9 -11 20 -11 11 0 20 5 20 10 0 6 8 5 19 -2 15 -9 17 -15 9 -26
-8 -9 -8 -16 0 -24 7 -7 12 -29 12 -49 0 -38 0 -38 -30 -27 -22 7 -33 18 -37
39 -3 16 -9 29 -14 29 -4 0 -11 9 -14 20 -3 11 -12 20 -18 20 -16 0 -87 58
-87 71 0 6 5 7 12 3 8 -5 9 -2 5 9 -3 10 -2 17 3 17 6 0 10 9 10 20 0 12 5 17
14 14 8 -3 16 3 19 15 3 12 1 19 -4 15 -24 -15 0 77 28 108 19 21 60 14 84
-14z m2019 2 c0 -5 -5 -10 -11 -10 -5 0 -7 5 -4 10 3 6 8 10 11 10 2 0 4 -4 4
-10z m-4420 -10 c0 -5 -2 -10 -4 -10 -3 0 -8 5 -11 10 -3 6 -1 10 4 10 6 0 11
-4 11 -10z m623 -19 c-4 -16 -8 -19 -14 -10 -4 7 -3 19 3 26 14 18 19 12 11
-16z m169 17 c-9 -9 -15 -9 -24 0 -9 9 -7 12 12 12 19 0 21 -3 12 -12z m1151
-3 c1 -6 -11 -11 -28 -12 -16 -1 -22 1 -12 3 9 3 17 10 17 16 0 12 21 6 23 -7z
m-2055 -30 c-3 -3 -9 2 -12 12 -6 14 -5 15 5 6 7 -7 10 -15 7 -18z m2078 -13
c-4 -3 -12 0 -19 7 -9 9 -9 14 3 21 11 7 16 5 18 -6 2 -9 1 -18 -2 -22z
m-1976 18 c0 -5 -4 -10 -10 -10 -5 0 -10 5 -10 10 0 6 5 10 10 10 6 0 10 -4
10 -10z m30 -11 c0 -11 -4 -17 -10 -14 -5 3 -10 13 -10 21 0 8 5 14 10 14 6 0
10 -9 10 -21z m356 -1 c-3 -13 -5 -25 -5 -28 -1 -3 -5 2 -11 10 -5 9 -5 19 2
27 15 19 18 16 14 -9z m-309 -24 c-4 -21 -1 -23 21 -17 17 4 23 2 18 -6 -19
-30 -82 11 -69 45 8 22 35 3 30 -22z m53 22 c0 -3 -4 -8 -10 -11 -5 -3 -10 -1
-10 4 0 6 5 11 10 11 6 0 10 -2 10 -4z m1786 -28 c17 -12 5 -48 -16 -48 -9 0
-25 9 -35 20 -33 36 10 60 51 28z m224 -8 c0 -5 -4 -10 -10 -10 -5 0 -8 -6 -6
-12 1 -7 1 -10 -1 -5 -3 4 -11 7 -19 7 -15 0 -19 12 -7 23 10 11 43 8 43 -3z
m985 -30 c-6 -9 -9 -9 -16 1 -10 17 0 34 13 21 6 -6 7 -16 3 -22z m-2545 -7
c2 -2 -2 -8 -10 -13 -11 -7 -3 -11 28 -16 34 -5 42 -10 42 -28 0 -12 -7 -31
-15 -42 -19 -25 -19 -49 2 -80 15 -23 15 -27 1 -41 -15 -14 -18 -13 -35 13
-14 22 -18 46 -17 100 1 69 0 73 -25 84 -14 6 -37 19 -51 29 l-24 19 49 -11
c28 -6 52 -12 55 -14z m2913 -1 c-3 -14 -13 -22 -27 -22 -19 1 -19 2 -3 11 9
6 14 15 11 21 -4 7 -2 8 4 4 7 -4 12 -2 12 5 0 7 2 10 5 8 2 -3 2 -15 -2 -27z
m852 18 c8 -13 -5 -13 -25 0 -13 8 -13 10 2 10 9 0 20 -4 23 -10z m-745 -20
c0 -5 -5 -10 -11 -10 -5 0 -7 5 -4 10 3 6 8 10 11 10 2 0 4 -4 4 -10z m-590
-42 c0 -6 -3 -8 -6 -5 -4 3 -14 2 -24 -3 -12 -6 -17 -5 -17 6 0 8 6 13 14 10
7 -3 13 -1 13 5 0 6 5 7 10 4 6 -3 10 -11 10 -17z m630 -4 c-3 -5 -10 -8 -17
-8 -6 1 -9 -5 -6 -12 3 -8 0 -14 -6 -14 -6 0 -11 11 -11 25 0 20 4 24 23 21
12 -1 20 -7 17 -12z m35 -3 c3 -5 1 -12 -5 -16 -5 -3 -10 1 -10 9 0 18 6 21
15 7z m-425 -16 c7 -8 8 -15 2 -15 -5 0 -15 7 -22 15 -7 8 -8 15 -2 15 5 0 15
-7 22 -15z m150 0 c11 -13 10 -14 -4 -9 -9 3 -16 10 -16 15 0 13 6 11 20 -6z
m-335 -6 c22 -5 47 -11 55 -13 8 -2 14 -6 14 -10 -9 -42 -13 -47 -37 -41 -15
4 -37 0 -55 -9 -29 -15 -31 -14 -45 7 -11 17 -12 26 -3 40 8 14 8 20 -4 27
-21 13 22 13 75 -1z m-985 -68 c0 -11 -31 -24 -39 -16 -3 3 1 10 9 15 19 12
30 12 30 1z m1237 3 c-3 -3 -12 -4 -19 -1 -8 3 -5 6 6 6 11 1 17 -2 13 -5z
m-473 -31 c10 -11 36 -12 36 -2 0 14 13 10 38 -11 17 -14 21 -25 16 -44 -5
-23 -12 -26 -46 -26 -45 0 -98 27 -98 50 0 12 -2 13 -9 1 -14 -22 -33 -4 -21
20 11 19 68 28 84 12z m281 -12 c-3 -6 4 -15 15 -21 29 -16 24 -37 -10 -42
-28 -4 -40 5 -21 16 4 3 6 17 3 31 -2 15 0 25 7 25 7 0 10 -4 6 -9z m1356 -38
c-2 -26 -10 -53 -17 -61 -12 -11 -14 -8 -14 25 0 30 21 83 33 83 1 0 0 -21 -2
-47z m-1470 10 c7 -41 5 -99 -3 -105 -6 -3 -22 1 -35 9 -26 17 -33 73 -9 73 8
0 16 7 20 15 6 15 25 21 27 8z m263 -28 c3 -9 -1 -18 -10 -22 -19 -7 -28 2
-21 22 8 19 23 19 31 0z m-1454 -8 c0 3 9 -2 20 -12 27 -25 25 -32 -11 -37
-23 -4 -34 1 -49 20 -24 30 -17 44 15 32 14 -5 25 -7 25 -3z m609 -16 c8 -5 9
-11 3 -15 -5 -3 -15 1 -22 9 -14 16 -3 20 19 6z m689 -19 c2 -7 -3 -12 -11
-12 -9 0 -17 -8 -19 -17 -3 -16 -4 -16 -20 0 -20 21 -29 22 -22 3 3 -8 1 -16
-4 -20 -5 -3 -8 4 -7 16 1 12 13 26 31 33 33 15 46 14 52 -3z m1417 -3 c0 -7
-8 -15 -17 -17 -18 -3 -25 18 -11 32 10 10 28 1 28 -15z m-1365 -25 c0 5 9 1
21 -9 l20 -19 -23 -18 c-40 -31 -46 -23 -39 57 1 6 6 3 11 -5 5 -8 10 -11 10
-6z m266 -59 c-1 -5 -17 -11 -34 -13 -27 -3 -32 0 -32 18 0 14 4 19 13 14 10
-6 10 -4 0 7 -24 25 -13 28 22 6 19 -12 33 -26 31 -32z m-750 12 c26 10 14
-14 -13 -26 -23 -11 -25 -10 -13 3 8 11 9 16 1 16 -6 0 -11 5 -11 12 0 9 3 9
11 1 6 -6 18 -9 25 -6z m454 9 c0 -3 -4 -8 -10 -11 -5 -3 -10 -1 -10 4 0 6 5
11 10 11 6 0 10 -2 10 -4z m-435 -56 c3 -5 1 -10 -4 -10 -6 0 -11 5 -11 10 0
6 2 10 4 10 3 0 8 -4 11 -10z m-102 -47 c4 -3 2 -12 -3 -18 -12 -15 -2 -47 12
-39 5 3 7 12 5 18 -3 7 1 13 8 13 7 0 13 -10 13 -22 0 -16 -6 -21 -22 -19 -11
1 -24 3 -28 3 -5 1 -8 17 -8 36 0 33 8 43 23 28z m103 -21 c-18 -16 -18 -16
-6 6 6 13 14 21 18 18 3 -4 -2 -14 -12 -24z m844 -2 c0 -5 -4 -10 -10 -10 -5
0 -10 5 -10 10 0 6 5 10 10 10 6 0 10 -4 10 -10z m-790 -81 c0 -6 -4 -7 -10
-4 -5 3 -10 11 -10 16 0 6 5 7 10 4 6 -3 10 -11 10 -16z m-230 -17 c0 -15 -2
-15 -10 -2 -13 20 -13 33 0 25 6 -3 10 -14 10 -23z m-836 2 c16 -16 21 -36 10
-46 -8 -9 -44 3 -44 14 0 5 5 6 10 3 6 -3 10 1 10 9 0 9 -4 16 -10 16 -5 0
-10 5 -10 10 0 15 16 12 34 -6z m1211 -14 c3 -5 1 -10 -4 -10 -6 0 -11 5 -11
10 0 6 2 10 4 10 3 0 8 -4 11 -10z m-1071 -30 c14 -5 26 -16 26 -24 0 -16 63
-32 68 -17 4 12 32 2 32 -11 0 -11 -94 -3 -114 10 -6 3 -29 6 -52 7 -35 1 -81
25 -69 36 9 9 85 8 109 -1z m466 -5 c11 -13 8 -15 -14 -15 -16 0 -26 5 -26 15
0 8 6 15 14 15 7 0 19 -7 26 -15z m2157 -72 c-11 -61 -20 -72 -64 -73 -34 0
-3 105 39 134 32 22 37 9 25 -61z m-2567 57 c0 -5 -4 -10 -10 -10 -5 0 -10 5
-10 10 0 6 5 10 10 10 6 0 10 -4 10 -10z m800 0 c0 -5 -4 -10 -10 -10 -5 0
-10 5 -10 10 0 6 5 10 10 10 6 0 10 -4 10 -10z m530 -30 c-8 -5 -17 -7 -19 -4
-3 3 1 9 9 14 8 5 17 7 19 4 3 -3 -1 -9 -9 -14z m-1160 -20 c0 -5 -9 -10 -21
-10 -11 0 -17 5 -14 10 3 6 13 10 21 10 8 0 14 -4 14 -10z m590 -37 c0 -12 5
-23 10 -25 6 -2 13 -19 16 -39 5 -31 3 -36 -22 -48 -31 -14 -24 -18 -87 61
-29 38 -29 75 1 59 10 -4 30 -11 46 -15 28 -7 29 -6 22 26 -4 23 -3 29 4 18 5
-8 10 -25 10 -37z m68 29 c6 -18 -15 -14 -22 4 -4 10 -1 14 6 12 6 -2 14 -10
16 -16z m-188 -8 c0 -8 -5 -12 -10 -9 -6 4 -8 11 -5 16 9 14 15 11 15 -7z
m164 -9 c3 -8 1 -17 -4 -20 -9 -6 -23 11 -26 32 -3 16 23 5 30 -12z m1141 2
c4 5 5 0 2 -9 -4 -10 -2 -18 3 -18 6 0 10 5 10 11 0 11 97 8 116 -3 15 -10
110 -20 98 -11 -6 4 -14 16 -17 27 -6 15 -4 17 10 11 10 -4 38 -11 63 -16 79
-16 80 -16 69 -49 -6 -17 -16 -27 -23 -24 -8 3 -16 -2 -19 -10 -4 -10 -1 -13
9 -9 24 9 6 -67 -20 -88 -28 -23 -56 -8 -56 29 0 26 -1 27 -61 27 -58 1 -63 3
-93 37 -36 41 -89 57 -113 33 -21 -22 -33 -18 -33 10 0 15 6 25 15 25 12 0 13
5 4 27 -10 26 -9 26 9 10 10 -9 22 -14 27 -10z m397 -49 c-7 -7 -12 -8 -12 -2
0 14 12 26 19 19 2 -3 -1 -11 -7 -17z m52 -12 c-3 -9 -10 -16 -15 -16 -6 0 -5
9 1 21 13 24 24 20 14 -5z m-1149 4 c3 -5 1 -10 -4 -10 -6 0 -11 5 -11 10 0 6
2 10 4 10 3 0 8 -4 11 -10z m55 -15 c11 -13 9 -15 -11 -12 -12 2 -25 9 -27 15
-5 17 23 15 38 -3z m-730 -40 c0 -14 -29 -26 -72 -30 -39 -4 -35 10 10 32 39
20 62 19 62 -2z m790 5 c-8 -6 -22 -10 -30 -10 -8 0 -4 6 10 13 27 15 44 12
20 -3z m65 0 c3 -5 2 -10 -4 -10 -5 0 -17 -3 -25 -6 -12 -5 -15 -2 -10 10 7
18 29 21 39 6z m78 -20 c-3 -11 -9 -20 -14 -20 -4 0 -7 9 -6 20 1 11 7 20 13
20 7 0 10 -8 7 -20z m107 -20 c0 -5 -6 -10 -14 -10 -8 0 -18 5 -21 10 -3 6 3
10 14 10 12 0 21 -4 21 -10z m-13 -26 c-3 -3 -12 -4 -19 -1 -8 3 -5 6 6 6 11
1 17 -2 13 -5z m238 -44 c29 -1 107 -38 101 -49 -11 -18 6 -41 31 -41 14 0 21
-4 18 -10 -3 -6 1 -13 11 -17 15 -6 15 -7 -4 -14 -12 -5 -22 -15 -22 -24 0 -8
-5 -15 -12 -15 -6 0 -19 -6 -27 -14 -12 -10 -32 -12 -89 -5 -41 4 -80 13 -87
19 -8 7 -31 10 -51 8 -31 -2 -41 2 -65 31 -21 26 -26 38 -18 48 6 7 15 10 20
7 5 -3 12 1 15 9 3 10 18 15 42 14 20 -1 37 4 40 11 2 7 10 12 18 12 9 0 12 5
8 12 -5 8 -2 9 9 5 9 -3 16 -3 16 1 -1 4 -1 14 0 22 1 11 4 11 13 2 7 -7 21
-12 33 -12z m459 -96 c19 -7 21 -47 4 -61 -20 -16 -66 -24 -73 -13 -3 5 -11 7
-18 4 -9 -3 -13 6 -12 28 0 26 5 33 25 39 34 9 55 10 74 3z m-170 -30 c9 -3
13 -10 10 -15 -8 -14 -21 -11 -28 6 -6 17 -4 18 18 9z m-77 -10 c-3 -3 -12 -4
-19 -1 -8 3 -5 6 6 6 11 1 17 -2 13 -5z m-1142 -24 c3 -6 -1 -7 -9 -4 -18 7
-21 14 -7 14 6 0 13 -4 16 -10z m1190 -20 c3 -5 12 -7 19 -4 7 3 16 -2 19 -10
4 -9 13 -16 20 -16 8 0 22 -9 31 -19 18 -19 17 -19 -18 -9 -20 6 -36 15 -36
20 0 4 -10 8 -22 8 -23 1 -58 21 -58 34 0 10 38 7 45 -4z m-868 -66 c-3 -3
-12 -4 -19 -1 -8 3 -5 6 6 6 11 1 17 -2 13 -5z m48 -34 c3 -5 1 -10 -4 -10 -6
0 -11 5 -11 10 0 6 2 10 4 10 3 0 8 -4 11 -10z"/>
<path d="M2183 2383 c-22 -8 -14 -30 11 -35 19 -4 22 -1 18 14 -5 22 -13 27
-29 21z"/>
<path d="M3360 2440 c0 -5 5 -10 10 -10 6 0 10 5 10 10 0 6 -4 10 -10 10 -5 0
-10 -4 -10 -10z"/>
<path d="M3330 2401 c0 -10 19 -25 25 -20 1 2 -3 10 -11 17 -8 7 -14 8 -14 3z"/>
<path d="M4020 2195 c0 -8 2 -15 4 -15 2 0 6 7 10 15 3 8 1 15 -4 15 -6 0 -10
-7 -10 -15z"/>
<path d="M4061 2128 c11 -26 29 -29 29 -6 0 6 -3 8 -7 5 -3 -4 -12 1 -20 11
-12 15 -12 13 -2 -10z"/>
<path d="M4115 2110 c3 -5 8 -10 11 -10 2 0 4 5 4 10 0 6 -5 10 -11 10 -5 0
-7 -4 -4 -10z"/>
<path d="M4095 2070 c3 -5 8 -10 11 -10 2 0 4 5 4 10 0 6 -5 10 -11 10 -5 0
-7 -4 -4 -10z"/>
<path d="M3187 1564 c6 -15 23 -19 23 -5 0 5 -7 11 -14 14 -10 4 -13 1 -9 -9z"/>
<path d="M5146 1181 c-3 -4 1 -16 8 -26 12 -17 13 -16 18 8 5 26 -13 39 -26
18z"/>
<path d="M1929 6745 c-13 -15 -32 -36 -42 -47 -21 -22 -32 -64 -19 -72 12 -7
52 22 52 39 0 7 8 16 18 20 29 8 47 55 29 72 -12 12 -17 10 -38 -12z"/>
<path d="M1190 6321 c0 -5 5 -13 10 -16 6 -3 10 -2 10 4 0 5 -4 13 -10 16 -5
3 -10 2 -10 -4z"/>
<path d="M1520 6316 c0 -9 5 -16 10 -16 6 0 10 4 10 9 0 6 -4 13 -10 16 -5 3
-10 -1 -10 -9z"/>
<path d="M1425 6240 c-4 -7 3 -8 22 -4 38 9 42 14 10 14 -14 0 -29 -5 -32 -10z"/>
<path d="M1416 6204 c-9 -22 -7 -44 2 -44 5 0 9 14 9 30 0 34 -2 37 -11 14z"/>
<path d="M885 6099 c-8 -23 -1 -34 14 -24 13 8 15 45 2 45 -5 0 -13 -9 -16
-21z"/>
<path d="M1267 6103 c-11 -10 -8 -35 4 -31 6 2 10 7 9 12 -1 5 4 13 12 17 10
7 10 9 -3 9 -9 0 -19 -3 -22 -7z"/>
<path d="M1224 6055 c-3 -8 -4 -20 -2 -27 3 -7 7 -1 10 15 6 29 1 36 -8 12z"/>
<path d="M1290 6050 c0 -5 5 -10 10 -10 6 0 10 5 10 10 0 6 -4 10 -10 10 -5 0
-10 -4 -10 -10z"/>
<path d="M775 6040 c-3 -5 -12 -7 -20 -3 -8 3 -15 1 -15 -4 0 -6 -9 -20 -20
-33 -11 -13 -20 -27 -20 -32 0 -16 29 -8 39 11 6 10 24 24 41 29 16 6 30 18
30 26 0 17 -25 22 -35 6z"/>
<path d="M1189 6006 c7 -8 9 -26 5 -43 -4 -15 -5 -26 -3 -23 2 3 12 15 22 26
17 20 17 23 2 38 -21 20 -42 22 -26 2z"/>
<path d="M1155 5989 c-4 -5 -14 -8 -22 -5 -16 6 -63 -36 -63 -56 0 -10 2 -10
9 1 7 11 9 11 13 0 4 -12 7 -12 21 0 9 7 24 11 32 7 8 -3 16 -1 16 4 3 20 4
25 12 37 4 6 3 14 -2 17 -5 4 -13 1 -16 -5z"/>
<path d="M1000 5894 c0 -14 3 -14 15 -4 8 7 15 14 15 16 0 2 -7 4 -15 4 -8 0
-15 -7 -15 -16z"/>
<path d="M502 5848 c-6 -8 -9 -17 -7 -20 3 -3 -6 -3 -20 -1 -16 4 -25 1 -25
-7 0 -7 -7 -18 -16 -25 -15 -10 -15 -12 -1 -18 18 -7 91 55 85 73 -3 9 -7 8
-16 -2z"/>
<path d="M5690 5790 c0 -5 5 -10 10 -10 6 0 10 5 10 10 0 6 -4 10 -10 10 -5 0
-10 -4 -10 -10z"/>
<path d="M304 5753 c-3 -10 -10 -26 -15 -36 -13 -24 -7 -29 24 -22 33 9 61 40
54 60 -9 21 -56 19 -63 -2z"/>
<path d="M396 5753 c-6 -14 -5 -15 5 -6 7 7 10 15 7 18 -3 3 -9 -2 -12 -12z"/>
<path d="M820 5755 c7 -8 16 -15 21 -15 5 0 6 7 3 15 -4 8 -13 15 -21 15 -13
0 -13 -3 -3 -15z"/>
<path d="M200 5686 c0 -20 2 -36 4 -36 8 0 12 61 4 66 -4 3 -8 -11 -8 -30z"/>
<path d="M237 5703 c-8 -8 -9 -43 -1 -43 12 0 35 31 29 40 -7 12 -19 13 -28 3z"/>
<path d="M96 5656 c-10 -16 -22 -23 -34 -19 -14 3 -21 -2 -25 -18 -7 -26 -1
-39 18 -39 7 0 15 -4 17 -9 2 -5 11 -4 21 4 11 8 20 30 22 59 3 25 3 46 1 46
-2 0 -11 -11 -20 -24z"/>
<path d="M130 5635 c0 -8 5 -15 10 -15 6 0 10 7 10 15 0 8 -4 15 -10 15 -5 0
-10 -7 -10 -15z"/>
<path d="M516 5581 c-4 -7 -5 -15 -2 -18 9 -9 19 4 14 18 -4 11 -6 11 -12 0z"/>
<path d="M26 5573 c-11 -11 -6 -23 9 -23 8 0 15 4 15 9 0 13 -16 22 -24 14z"/>
<path d="M457 5552 c-22 -25 -21 -42 2 -42 19 0 31 18 31 46 0 19 -14 18 -33
-4z"/>
<path d="M0 5535 c0 -9 5 -15 11 -13 14 5 14 21 0 26 -6 2 -11 -4 -11 -13z"/>
<path d="M400 5480 c-1 -14 -2 -29 -1 -34 2 -9 -29 12 -40 28 -4 4 -9 3 -13
-2 -6 -11 30 -52 46 -52 13 0 20 25 15 57 -4 27 -4 27 -7 3z"/>
<path d="M315 5440 c10 -11 25 -20 34 -19 11 0 9 4 -6 11 -13 6 -23 15 -23 20
0 4 -5 8 -12 8 -6 0 -3 -9 7 -20z"/>
<path d="M230 5410 c0 -5 -7 -10 -16 -10 -9 0 -27 -9 -41 -20 -14 -11 -32 -20
-39 -20 -19 0 -18 -36 1 -39 8 -1 25 -2 38 -3 12 -1 25 -7 29 -12 5 -7 11 -7
20 2 10 10 10 14 -2 22 -8 5 -18 6 -24 3 -5 -3 -6 -1 -2 5 4 6 12 9 20 6 7 -3
18 7 24 21 15 32 15 55 2 55 -5 0 -10 -4 -10 -10z"/>
<path d="M46 5294 c-3 -9 -3 -21 1 -27 4 -7 -1 -6 -10 2 -21 16 -30 10 -35
-26 -3 -23 -1 -25 12 -13 14 10 16 10 16 -5 0 -13 5 -16 23 -10 12 4 30 7 40
6 21 0 22 12 2 29 -8 7 -15 23 -15 36 0 27 -24 33 -34 8z"/>
<path d="M1975 5220 c-5 -5 -26 -23 -45 -39 -26 -23 -32 -33 -22 -39 17 -11
-27 -59 -67 -73 -22 -8 -28 -15 -24 -30 4 -16 0 -19 -26 -19 -17 0 -31 -4 -31
-10 0 -5 -7 -7 -16 -3 -10 4 -20 0 -25 -10 -5 -8 -23 -18 -39 -22 -37 -8 -52
-34 -55 -94 -1 -25 -3 -49 -4 -53 0 -3 -25 -5 -53 -3 -65 3 -81 -7 -66 -41 6
-13 19 -26 28 -29 31 -10 62 -46 51 -59 -6 -7 -8 -15 -5 -19 8 -8 -51 -33
-110 -47 -61 -14 -108 -50 -95 -73 7 -11 4 -17 -11 -22 -11 -3 -20 -13 -20
-21 0 -8 -9 -14 -19 -14 -11 0 -23 -4 -26 -10 -3 -5 0 -10 8 -10 8 0 18 -7 21
-16 4 -10 14 -14 26 -11 21 5 28 -7 10 -18 -26 -16 -4 -25 63 -24 70 0 99 -4
217 -34 44 -11 58 -19 69 -43 18 -37 31 -45 58 -39 32 8 68 -10 70 -34 1 -12
-2 -21 -8 -21 -5 0 -9 -9 -9 -20 0 -17 7 -20 50 -20 50 0 69 17 30 27 -11 3
-20 11 -20 18 0 7 -6 15 -12 18 -7 2 10 7 39 11 67 9 75 28 28 69 -19 16 -35
38 -35 48 0 10 -4 21 -10 24 -16 10 -12 45 5 45 8 0 15 4 15 9 0 9 21 14 118
31 65 10 69 14 45 34 -10 8 -44 36 -77 63 -52 42 -85 88 -72 101 6 5 101 -72
119 -97 22 -32 68 -55 103 -53 35 3 42 -6 23 -25 -16 -16 -2 -33 26 -33 38 0
53 10 48 31 -3 10 0 19 6 19 6 0 11 5 11 11 0 25 27 37 69 32 28 -4 41 -2 41
6 0 7 12 24 26 38 20 20 23 28 12 34 -22 14 -82 10 -106 -7 -25 -17 -52 -13
-52 9 0 9 19 19 48 27 26 7 55 14 65 17 17 5 18 6 1 24 -9 10 -25 21 -35 24
-27 9 -23 32 6 39 34 9 32 18 -14 65 -29 29 -44 38 -60 34 -12 -3 -21 -1 -21
6 0 18 49 25 76 10 14 -7 34 -27 45 -45 12 -19 26 -31 33 -28 8 3 17 1 20 -5
8 -12 66 19 66 34 0 6 14 19 30 29 18 10 30 25 28 34 -1 10 1 23 5 30 5 6 2
28 -5 48 -11 31 -10 39 4 65 16 28 16 29 -1 29 -10 0 -30 9 -44 20 -14 11 -30
20 -35 20 -6 0 -18 19 -27 43 l-16 42 -132 -1 c-119 -2 -188 -12 -249 -38 -12
-6 -17 -2 -20 16 -3 24 -26 34 -43 18z m-5 -74 c0 -9 -7 -12 -21 -9 -16 4 -17
8 -7 14 19 13 28 11 28 -5z m170 -41 c0 -8 -4 -15 -10 -15 -5 0 -10 7 -10 15
0 8 5 15 10 15 6 0 10 -7 10 -15z m-185 -25 c3 -5 1 -10 -4 -10 -6 0 -11 5
-11 10 0 6 2 10 4 10 3 0 8 -4 11 -10z m5 -282 c0 -12 7 -30 17 -40 16 -18 8
-23 -21 -12 -11 4 -14 13 -10 30 5 18 2 24 -10 24 -9 0 -16 5 -16 10 0 6 9 10
20 10 14 0 20 -7 20 -22z m-330 -8 c0 -5 -4 -10 -10 -10 -5 0 -10 5 -10 10 0
6 5 10 10 10 6 0 10 -4 10 -10z m53 -22 c-2 -5 3 -8 12 -8 32 0 8 -25 -26 -27
-19 -1 -28 0 -21 3 6 3 12 10 12 15 0 6 -4 7 -10 4 -13 -8 -13 1 0 26 9 15 13
17 24 7 8 -7 12 -16 9 -20z m107 18 c0 -7 -7 -19 -15 -26 -12 -10 -15 -9 -15
7 0 11 3 23 7 26 11 12 23 8 23 -7z m80 -27 c0 -5 -7 -9 -15 -9 -9 0 -15 9
-15 21 0 18 2 19 15 9 8 -7 15 -16 15 -21z m-130 11 c0 -5 -4 -10 -10 -10 -5
0 -10 5 -10 10 0 6 5 10 10 10 6 0 10 -4 10 -10z m435 -30 c3 -5 2 -10 -4 -10
-5 0 -13 5 -16 10 -3 6 -2 10 4 10 5 0 13 -4 16 -10z m-415 -180 c0 -11 -4
-20 -10 -20 -5 0 -10 2 -10 4 0 2 -3 11 -6 20 -4 11 -1 16 10 16 9 0 16 -8 16
-20z m90 -10 c0 -4 -6 -10 -14 -13 -10 -4 -12 0 -9 14 5 18 23 18 23 -1z
m-160 -140 c0 -5 -4 -10 -10 -10 -5 0 -10 5 -10 10 0 6 5 10 10 10 6 0 10 -4
10 -10z"/>
<path d="M2690 5183 c-18 -7 -30 -23 -30 -40 0 -9 20 -13 66 -13 49 0 64 3 59
13 -4 6 0 4 8 -5 8 -10 18 -18 22 -18 15 0 104 45 105 52 0 4 -35 7 -77 6 -43
-1 -91 1 -108 4 -16 4 -37 4 -45 1z"/>
<path d="M2618 5093 c-31 -8 -21 -38 18 -53 29 -12 32 -15 17 -21 -16 -7 -15
-8 4 -8 12 -1 25 -5 28 -11 8 -14 45 -13 45 1 0 7 10 9 26 5 14 -4 23 -3 20 2
-3 5 -23 12 -45 16 -36 6 -39 8 -37 38 1 30 -2 33 -29 35 -16 0 -38 -1 -47 -4z"/>
<path d="M3552 5091 c-10 -6 -7 -10 11 -15 28 -7 57 1 57 15 0 11 -51 11 -68
0z"/>
<path d="M3860 4761 c0 -10 36 -21 44 -14 3 3 3 10 0 14 -7 12 -44 12 -44 0z"/>
<path d="M3058 4703 c7 -3 16 -2 19 1 4 3 -2 6 -13 5 -11 0 -14 -3 -6 -6z"/>
<path d="M3204 4684 c3 -9 6 -18 6 -20 0 -2 7 -4 15 -4 8 0 19 -8 24 -19 6
-10 22 -22 36 -25 14 -4 25 -13 25 -21 0 -21 -23 -18 -37 4 -18 28 -76 53
-115 50 -23 -2 -32 1 -30 10 2 8 -3 11 -13 8 -9 -4 -15 -1 -15 8 0 18 -17 20
-22 3 -4 -10 -10 -10 -29 -2 -27 12 -69 2 -69 -17 0 -7 9 -9 23 -5 29 7 87
-14 87 -32 0 -10 -9 -13 -29 -10 -17 2 -28 1 -25 -3 2 -4 0 -10 -6 -14 -5 -3
-10 -1 -10 5 0 7 -6 5 -15 -4 -8 -8 -15 -17 -15 -20 0 -3 7 -6 15 -6 8 0 15
-4 15 -9 0 -5 20 -12 45 -15 25 -4 45 -10 45 -14 0 -4 15 -16 34 -26 31 -16
41 -17 103 -6 37 6 93 10 123 8 l55 -3 28 -58 c15 -32 26 -65 23 -75 -3 -9
-22 -35 -41 -56 -19 -22 -35 -42 -35 -45 0 -4 -14 -12 -31 -20 -17 -7 -51 -31
-75 -52 -25 -22 -50 -39 -55 -39 -18 0 -81 -69 -74 -80 4 -7 14 -3 27 12 16
17 20 18 15 5 -6 -15 -1 -18 26 -17 17 0 49 -3 70 -6 21 -3 36 -2 35 2 -2 5 2
9 7 9 6 0 9 -3 8 -7 -1 -3 4 -12 13 -19 11 -9 20 -9 40 0 14 6 30 9 35 6 5 -4
9 -1 9 4 0 6 6 11 13 11 6 -1 2 -9 -10 -19 l-22 -18 30 -1 c37 -1 52 -10 45
-28 -17 -43 84 26 106 74 9 17 24 29 43 32 17 4 29 11 28 17 -1 6 5 10 15 9
27 -2 29 50 2 59 -12 4 -19 12 -17 18 5 16 40 20 93 12 l43 -6 -34 -31 c-19
-16 -35 -34 -35 -38 0 -7 77 3 84 11 2 2 17 26 34 53 l30 49 -29 31 c-16 17
-29 36 -29 43 0 6 -12 16 -27 21 -16 6 -42 23 -58 39 -19 17 -42 28 -60 28
-15 0 -30 6 -33 13 -2 7 2 10 11 6 23 -8 31 15 13 35 -9 10 -16 23 -16 29 0 7
-9 12 -20 12 -24 0 -37 27 -21 43 6 6 11 24 11 39 0 15 5 28 10 28 6 0 10 4
10 8 0 12 -68 13 -75 2 -11 -17 -33 -11 -58 16 -20 21 -30 25 -54 20 -26 -6
-29 -10 -25 -42 l4 -35 -36 17 c-34 17 -37 17 -55 0 -28 -25 -59 -15 -110 34
-44 43 -57 49 -47 24z m436 -248 c0 -3 -4 -8 -10 -11 -5 -3 -10 -1 -10 4 0 6
5 11 10 11 6 0 10 -2 10 -4z m-50 -36 c0 -5 -5 -10 -11 -10 -5 0 -7 5 -4 10 3
6 8 10 11 10 2 0 4 -4 4 -10z m143 -91 c12 -7 34 -12 49 -11 36 1 58 -33 28
-41 -11 -3 -26 1 -34 8 -7 8 -16 12 -19 9 -3 -4 -18 6 -34 20 -29 28 -26 33
10 15z m-423 -128 c0 -5 -7 -11 -15 -15 -15 -5 -20 5 -8 17 9 10 23 9 23 -2z
m-70 -61 c0 -5 -2 -10 -4 -10 -3 0 -8 5 -11 10 -3 6 -1 10 4 10 6 0 11 -4 11
-10z m160 -30 c0 -5 -2 -10 -4 -10 -3 0 -8 5 -11 10 -3 6 -1 10 4 10 6 0 11
-4 11 -10z"/>
<path d="M3739 4678 c8 -10 21 -18 28 -18 7 0 13 -6 13 -12 0 -20 20 14 20 34
0 14 -8 18 -39 16 -36 -1 -37 -2 -22 -20z"/>
<path d="M3650 4680 c0 -5 5 -10 10 -10 6 0 10 5 10 10 0 6 -4 10 -10 10 -5 0
-10 -4 -10 -10z"/>
<path d="M2776 4645 c11 -28 44 -39 62 -21 19 19 17 22 -30 30 -32 6 -37 4
-32 -9z"/>
<path d="M2440 4600 c0 -5 12 -10 26 -10 14 0 23 4 19 10 -3 6 -15 10 -26 10
-10 0 -19 -4 -19 -10z"/>
<path d="M2280 4501 c0 -17 6 -21 31 -21 24 0 30 4 27 18 -2 10 -14 18 -31 20
-22 3 -27 -1 -27 -17z"/>
<path d="M1240 4401 c0 -6 -7 -8 -16 -4 -11 4 -22 -1 -30 -12 -22 -30 -17 -40
21 -40 26 0 35 4 35 17 0 9 4 18 9 20 5 2 3 9 -5 16 -8 7 -14 8 -14 3z"/>
<path d="M1319 4364 c-36 -20 -45 -31 -42 -45 12 -46 111 -9 128 49 5 18 2 22
-17 22 -13 0 -44 -12 -69 -26z"/>
<path d="M5089 4354 c-12 -14 -11 -16 5 -13 11 2 21 10 24 17 5 17 -13 15 -29
-4z"/>
<path d="M1075 4350 c-3 -5 -2 -10 4 -10 5 0 13 5 16 10 3 6 2 10 -4 10 -5 0
-13 -4 -16 -10z"/>
<path d="M4971 4353 c-19 -3 -40 -12 -47 -20 -6 -9 -18 -14 -27 -10 -9 3 -19
2 -22 -3 -4 -6 -15 -10 -26 -10 -54 0 30 -44 105 -55 42 -7 46 -5 57 18 6 14
20 28 30 30 22 6 26 47 5 47 -8 0 -20 2 -28 3 -7 2 -29 2 -47 0z"/>
<path d="M2290 4300 c-29 -22 -56 -37 -61 -35 -18 12 -17 -14 1 -30 19 -17 51
-18 190 -5 3 0 -5 9 -18 20 -12 10 -29 35 -37 54 -9 20 -17 36 -18 36 -2 0
-27 -18 -57 -40z"/>
<path d="M1595 4320 c-4 -7 0 -19 9 -28 15 -16 16 -15 13 5 -4 29 -13 38 -22
23z"/>
<path d="M2123 4314 c-4 -11 2 -23 17 -34 17 -13 20 -19 9 -23 -8 -3 2 -5 21
-5 19 0 29 2 23 5 -15 6 -17 33 -3 33 6 0 5 8 -2 20 -15 24 -56 26 -65 4z"/>
<path d="M999 4291 c-52 -30 -99 -74 -99 -93 -1 -18 -22 -43 -42 -51 -10 -3
-18 -13 -18 -22 0 -8 -4 -15 -10 -15 -5 0 -7 -7 -4 -15 5 -13 8 -13 21 0 8 8
26 17 41 20 15 3 45 9 67 14 28 7 44 6 54 -2 12 -9 13 -9 7 1 -5 8 -1 12 13
12 28 0 35 17 9 23 l-22 6 22 24 c12 13 22 28 22 34 0 6 7 16 15 23 8 7 15 17
15 23 0 7 -4 7 -12 -1 -7 -7 -19 -12 -27 -12 -11 0 -11 4 3 19 16 18 15 43 -2
40 -4 -1 -28 -13 -53 -28z"/>
<path d="M6370 4266 c0 -16 7 -26 22 -30 35 -9 47 12 19 35 -31 25 -41 24 -41
-5z"/>
<path d="M1407 4213 c-13 -12 -7 -23 12 -23 11 0 23 -5 26 -10 4 -6 10 -8 15
-5 14 8 -12 45 -31 45 -8 0 -19 -3 -22 -7z"/>
<path d="M3733 4168 c-2 -18 0 -20 7 -8 12 18 13 30 2 30 -4 0 -9 -10 -9 -22z"/>
<path d="M3115 4159 c-9 -28 -1 -33 31 -17 40 19 42 38 6 38 -22 0 -32 -6 -37
-21z"/>
<path d="M2015 4131 c14 -14 59 -18 65 -6 3 6 -13 11 -35 13 -27 2 -37 0 -30
-7z"/>
<path d="M2750 4130 c-12 -8 -9 -10 13 -10 16 0 26 4 22 10 -8 12 -16 12 -35
0z"/>
<path d="M6620 4085 c-12 -15 -5 -55 11 -55 5 0 9 16 9 35 0 39 -2 41 -20 20z"/>
<path d="M2898 4083 c7 -3 16 -2 19 1 4 3 -2 6 -13 5 -11 0 -14 -3 -6 -6z"/>
<path d="M3690 4000 c0 -5 5 -10 10 -10 6 0 10 5 10 10 0 6 -4 10 -10 10 -5 0
-10 -4 -10 -10z"/>
<path d="M4710 4003 c-14 -3 -36 -18 -49 -35 l-24 -30 32 7 c25 5 35 3 45 -11
13 -17 15 -17 40 -1 15 10 24 22 21 27 -4 6 3 10 14 10 18 0 38 17 30 25 -8 6
-85 12 -109 8z"/>
<path d="M3553 3977 c-2 -4 8 -22 22 -39 25 -30 26 -33 9 -39 -11 -4 -29 -8
-41 -8 -65 -2 -25 -101 40 -101 18 0 38 4 45 9 12 7 31 64 34 99 1 6 5 12 10
12 5 0 13 12 19 27 8 22 7 29 -8 37 -21 12 -123 15 -130 3z m95 -72 c0 -15 -6
-25 -14 -25 -13 0 -17 10 -11 28 1 4 5 6 10 5 4 -2 7 2 7 7 0 6 2 10 4 10 2 0
4 -11 4 -25z"/>
<path d="M4570 3950 c0 -5 4 -10 9 -10 6 0 13 5 16 10 3 6 -1 10 -9 10 -9 0
-16 -4 -16 -10z"/>
<path d="M1194 3923 c4 -9 1 -23 -6 -32 -11 -14 -11 -14 3 -4 9 7 20 9 24 5 5
-4 5 -1 1 6 -4 7 -1 12 9 12 22 0 11 16 -16 23 -16 4 -19 2 -15 -10z"/>
<path d="M4240 3920 c0 -6 7 -13 15 -17 24 -9 27 1 5 15 -13 8 -20 8 -20 2z"/>
<path d="M1007 3900 c-3 -11 -1 -20 4 -20 5 0 9 6 9 14 0 8 6 17 13 19 7 4 6
6 -4 6 -9 1 -19 -8 -22 -19z"/>
<path d="M4317 3896 c-3 -8 -3 -17 0 -20 9 -9 34 15 27 25 -8 13 -21 11 -27
-5z"/>
<path d="M4373 3895 c-14 -11 -16 -16 -5 -26 9 -10 12 -10 12 -1 0 7 9 12 20
12 11 0 20 4 20 9 0 16 -28 20 -47 6z"/>
<path d="M3780 3890 c0 -5 9 -10 20 -10 11 0 20 5 20 10 0 6 -9 10 -20 10 -11
0 -20 -4 -20 -10z"/>
<path d="M996 3855 c-9 -26 -7 -32 5 -12 6 10 9 21 6 23 -2 3 -7 -2 -11 -11z"/>
<path d="M2385 3839 c-4 -6 -5 -12 -2 -15 2 -3 7 2 10 11 7 17 1 20 -8 4z"/>
<path d="M3755 3820 c4 -6 11 -8 16 -5 14 9 11 15 -7 15 -8 0 -12 -5 -9 -10z"/>
<path d="M3791 3774 c-22 -19 -23 -24 -12 -38 7 -9 17 -14 21 -11 4 3 25 -1
46 -8 33 -12 42 -12 66 2 37 21 41 37 17 60 -29 27 -104 25 -138 -5z"/>
<path d="M3460 3750 c-20 -5 -24 -12 -22 -32 1 -16 -4 -28 -13 -32 -11 -4 -14
-13 -10 -25 5 -15 1 -18 -20 -13 -29 5 -31 0 -10 -22 12 -11 22 -13 39 -6 29
11 66 2 66 -16 0 -17 -28 -33 -49 -27 -10 2 -32 -11 -54 -32 -34 -33 -47 -57
-29 -54 22 4 29 -4 25 -28 l-4 -28 15 26 c21 36 65 45 89 17 13 -15 17 -16 17
-5 0 8 -7 17 -15 21 -8 3 -15 10 -15 15 0 17 30 40 45 35 8 -4 15 -2 15 3 0
17 62 14 82 -4 20 -18 40 -25 72 -24 14 0 16 -3 7 -12 -19 -19 -12 -27 22 -27
18 0 38 -5 43 -10 7 -7 20 -7 34 -2 36 13 70 3 70 -21 0 -11 -3 -17 -6 -14 -4
4 -15 -3 -25 -14 -11 -13 -25 -19 -34 -15 -9 3 -18 -1 -22 -10 -5 -13 -7 -13
-14 -2 -6 8 -9 9 -9 1 0 -6 -9 -9 -20 -6 -11 3 -20 0 -20 -6 0 -5 -7 -8 -15
-5 -18 7 -21 -31 -3 -42 7 -5 8 -3 3 6 -6 10 -1 12 21 7 15 -3 38 -1 50 3 25
10 49 -10 41 -32 -2 -7 0 -21 5 -32 7 -13 7 -16 -1 -12 -6 4 -3 -6 6 -22 15
-26 21 -29 41 -21 13 5 21 6 19 1 -6 -9 14 -27 31 -27 8 0 20 9 28 19 12 17
14 18 14 3 0 -9 -4 -17 -10 -17 -5 0 -10 -7 -10 -16 0 -26 41 -13 208 62 18 8
36 13 41 10 12 -8 94 22 107 39 15 20 69 24 69 5 0 -9 11 -16 28 -18 15 -2 27
2 27 8 0 6 -3 9 -7 7 -5 -3 -9 13 -9 34 -1 22 -9 48 -18 58 -9 10 -16 29 -16
43 0 21 -8 29 -41 42 l-41 17 -36 -31 c-21 -17 -43 -35 -50 -41 -9 -7 -22 -2
-47 17 -19 14 -35 30 -35 34 0 4 12 20 28 35 l27 28 -58 -5 c-32 -3 -53 -2
-48 2 7 4 4 18 -7 40 -16 33 -20 35 -64 34 -52 0 -72 -11 -47 -24 11 -6 15
-18 12 -35 -4 -17 0 -27 11 -31 9 -3 16 -12 16 -20 0 -19 -59 -18 -87 1 -12 8
-55 18 -95 21 -40 4 -74 10 -76 15 -2 5 -16 9 -30 9 -27 1 -89 29 -64 30 9 0
10 5 3 19 -6 10 -8 21 -5 24 9 9 -16 48 -27 42 -5 -4 -9 1 -9 10 0 10 -6 15
-13 12 -16 -6 -41 12 -50 35 -8 24 -38 36 -67 28z m-60 -214 c0 -3 -4 -8 -10
-11 -5 -3 -10 -1 -10 4 0 6 5 11 10 11 6 0 10 -2 10 -4z m445 -36 c-3 -5 -12
-10 -18 -10 -7 0 -6 4 3 10 19 12 23 12 15 0z m-25 -130 c0 -5 9 -6 20 -3 11
3 20 0 20 -6 0 -5 -6 -8 -14 -5 -9 3 -16 -2 -18 -13 -3 -14 -7 -12 -21 14 -15
27 -15 32 -2 27 8 -4 15 -10 15 -14z m177 -26 c-3 -3 -12 -4 -19 -1 -8 3 -5 6
6 6 11 1 17 -2 13 -5z m47 -23 c3 -5 -1 -11 -9 -15 -8 -3 -17 0 -21 6 -4 7 -3
8 4 4 7 -4 12 -2 12 3 0 13 7 14 14 2z m-159 -21 c3 -5 3 -15 -1 -21 -6 -11
-23 6 -24 24 0 10 18 9 25 -3z m45 -9 c0 -5 3 -18 6 -28 6 -16 5 -16 -9 2 -19
23 -21 35 -7 35 6 0 10 -4 10 -9z"/>
<path d="M802 3690 c0 -14 2 -19 5 -12 2 6 2 18 0 25 -3 6 -5 1 -5 -13z"/>
<path d="M5397 3583 c-9 -9 -9 -23 1 -21 4 0 15 -2 25 -7 25 -10 48 12 27 25
-18 11 -44 13 -53 3z"/>
<path d="M5127 3529 c7 -7 15 -10 18 -7 3 3 -2 9 -12 12 -14 6 -15 5 -6 -5z"/>
<path d="M5715 3450 c-3 -5 -1 -10 4 -10 6 0 11 5 11 10 0 6 -2 10 -4 10 -3 0
-8 -4 -11 -10z"/>
<path d="M3466 3425 c4 -8 12 -15 20 -15 8 0 11 6 8 15 -4 8 -12 15 -20 15 -8
0 -11 -6 -8 -15z"/>
<path d="M3765 3430 c-18 -8 -17 -9 8 -9 15 -1 27 4 27 9 0 12 -8 12 -35 0z"/>
<path d="M3465 3389 c-4 -6 -5 -12 -2 -15 2 -3 7 2 10 11 7 17 1 20 -8 4z"/>
<path d="M5065 3389 c-11 -17 1 -21 15 -4 8 9 8 15 2 15 -6 0 -14 -5 -17 -11z"/>
<path d="M5295 3330 c3 -5 8 -10 11 -10 2 0 4 5 4 10 0 6 -5 10 -11 10 -5 0
-7 -4 -4 -10z"/>
<path d="M3706 3307 c3 -10 9 -15 12 -12 3 3 0 11 -7 18 -10 9 -11 8 -5 -6z"/>
<path d="M5370 3310 c0 -6 4 -10 9 -10 14 0 9 -35 -7 -50 -12 -11 -13 -10 -8
7 6 19 -27 63 -39 51 -12 -11 -7 -77 6 -92 39 -43 41 -46 25 -52 -16 -6 -19
-84 -3 -84 5 0 7 -6 4 -12 -15 -43 -17 -58 -7 -58 6 0 9 4 6 9 -3 4 12 13 33
19 21 7 46 21 56 32 18 20 18 21 -3 36 -28 19 -28 27 3 60 28 30 31 50 11 77
-8 10 -11 27 -8 39 4 18 2 20 -21 16 -15 -3 -27 -2 -27 2 0 4 -7 10 -15 14 -8
3 -15 1 -15 -4z m50 -90 c0 -5 -2 -10 -4 -10 -3 0 -8 5 -11 10 -3 6 -1 10 4
10 6 0 11 -4 11 -10z"/>
<path d="M3470 3296 c0 -9 5 -16 10 -16 6 0 10 4 10 9 0 6 -4 13 -10 16 -5 3
-10 -1 -10 -9z"/>
<path d="M4328 3265 c-24 -33 -23 -43 2 -15 11 13 20 27 20 32 0 12 -3 10 -22
-17z"/>
<path d="M5849 3273 c-12 -16 -12 -17 2 -6 9 7 20 9 24 5 5 -4 5 -1 1 6 -9 16
-11 15 -27 -5z"/>
<path d="M3540 3246 c0 -8 -7 -22 -16 -30 -14 -15 -14 -16 3 -16 10 0 14 -3 8
-8 -12 -8 -14 -62 -2 -62 6 0 11 24 8 43 -1 6 14 11 31 8 4 0 5 6 2 14 -4 8
-11 12 -17 8 -6 -4 -8 3 -3 20 3 14 2 29 -4 32 -5 3 -10 -1 -10 -9z"/>
<path d="M4430 3230 c0 -5 5 -10 10 -10 6 0 10 5 10 10 0 6 -4 10 -10 10 -5 0
-10 -4 -10 -10z"/>
<path d="M3486 3212 c-2 -4 -1 -14 5 -22 7 -12 9 -10 9 8 0 23 -5 28 -14 14z"/>
<path d="M5255 3150 c3 -5 11 -10 16 -10 6 0 7 5 4 10 -3 6 -11 10 -16 10 -6
0 -7 -4 -4 -10z"/>
<path d="M5490 3120 c0 -5 5 -10 10 -10 6 0 10 5 10 10 0 6 -4 10 -10 10 -5 0
-10 -4 -10 -10z"/>
<path d="M5633 3090 c-13 -5 -23 -12 -23 -15 0 -4 5 -3 10 0 6 3 13 -1 17 -10
3 -10 0 -20 -7 -25 -9 -6 -9 -12 0 -29 11 -21 13 -21 35 -7 14 9 32 16 41 16
16 0 16 1 0 19 -10 11 -19 28 -20 38 -3 21 -22 26 -53 13z m34 -32 c-3 -8 -6
-5 -6 6 -1 11 2 17 5 13 3 -3 4 -12 1 -19z"/>
<path d="M4520 3080 c0 -5 5 -10 10 -10 6 0 10 5 10 10 0 6 -4 10 -10 10 -5 0
-10 -4 -10 -10z"/>
<path d="M5840 3060 c0 -5 5 -10 10 -10 6 0 10 5 10 10 0 6 -4 10 -10 10 -5 0
-10 -4 -10 -10z"/>
<path d="M5680 2919 c7 -11 14 -19 16 -16 7 7 -7 37 -17 37 -6 0 -5 -9 1 -21z"/>
<path d="M5824 2925 c-9 -22 1 -29 15 -11 8 10 9 16 1 21 -5 3 -13 -1 -16 -10z"/>
<path d="M4970 2871 c0 -5 5 -13 10 -16 6 -3 10 -2 10 4 0 5 -4 13 -10 16 -5
3 -10 2 -10 -4z"/>
<path d="M590 2850 c0 -6 -10 -10 -22 -10 -38 0 -52 -14 -39 -39 13 -24 46
-28 54 -7 3 8 18 16 32 18 l27 3 -26 22 c-14 13 -26 18 -26 13z"/>
<path d="M666 2823 c-11 -11 -6 -23 9 -23 8 0 15 4 15 9 0 13 -16 22 -24 14z"/>
<path d="M4936 2508 c26 -45 37 -57 46 -52 5 3 2 14 -7 24 -9 10 -14 24 -10
29 3 7 -3 11 -15 11 -14 0 -19 -4 -14 -12z"/>
<path d="M5040 2500 c0 -5 9 -10 21 -10 11 0 17 5 14 10 -3 6 -13 10 -21 10
-8 0 -14 -4 -14 -10z"/>
<path d="M4916 2445 c4 -8 11 -15 16 -15 6 0 5 6 -2 15 -7 8 -14 15 -16 15 -2
0 -1 -7 2 -15z"/>
<path d="M5615 2407 c10 -15 20 -25 23 -22 3 3 -5 16 -17 28 l-23 22 17 -28z"/>
<path d="M5640 2290 c0 -5 5 -10 10 -10 6 0 10 5 10 10 0 6 -4 10 -10 10 -5 0
-10 -4 -10 -10z"/>
<path d="M5675 2100 c-3 -5 -1 -10 4 -10 6 0 11 5 11 10 0 6 -2 10 -4 10 -3 0
-8 -4 -11 -10z"/>
<path d="M4 1750 c1 -50 3 -55 23 -53 11 1 24 -4 27 -12 3 -9 0 -15 -9 -15 -9
0 -12 -6 -9 -15 9 -24 33 -18 40 10 10 39 -2 58 -31 51 -26 -7 -35 10 -15 30
8 8 5 18 -9 35 l-19 24 2 -55z"/>
<path d="M6193 1753 c-19 -13 -21 -18 -11 -37 6 -11 11 -22 10 -23 -12 -17 7
-44 47 -70 32 -21 50 -41 53 -58 3 -14 1 -25 -3 -25 -5 0 -9 -4 -9 -9 0 -5 9
-7 20 -4 39 10 24 47 -50 121 -23 23 -39 46 -35 52 3 5 0 10 -7 11 -7 0 -3 4
10 10 14 5 22 16 20 26 -4 23 -19 25 -45 6z"/>
<path d="M104 1664 c3 -9 6 -20 6 -25 0 -5 9 -9 19 -9 22 0 37 -30 20 -41 -16
-9 -4 -39 16 -39 8 0 15 -4 15 -10 0 -5 -5 -10 -11 -10 -5 0 -7 -5 -4 -11 9
-13 78 57 72 74 -2 6 -12 14 -22 15 -10 3 -15 0 -11 -7 10 -16 -12 -51 -29
-45 -11 4 -12 12 -4 32 12 32 -6 72 -33 72 -10 0 -18 5 -18 10 0 6 -5 10 -11
10 -6 0 -8 -7 -5 -16z"/>
<path d="M5989 1619 c-6 -3 -6 -21 -2 -44 l8 -38 43 38 c23 21 42 41 42 45 0
9 -77 8 -91 -1z"/>
<path d="M353 1543 c68 -75 87 -98 87 -108 0 -8 85 -140 100 -155 3 -3 13 -21
24 -40 10 -19 31 -58 47 -86 15 -29 26 -54 24 -56 -2 -2 8 -28 24 -58 87 -173
128 -243 167 -288 24 -28 44 -55 44 -61 0 -6 15 -20 33 -31 17 -11 28 -20 23
-20 -12 0 34 -34 64 -47 14 -5 45 -27 68 -47 24 -20 47 -34 51 -32 4 3 13 -4
21 -14 8 -10 17 -17 22 -14 4 3 8 1 8 -5 0 -6 7 -8 15 -5 8 4 15 1 15 -5 0 -6
12 -11 28 -12 15 0 21 -3 15 -6 -7 -2 -13 -9 -13 -14 0 -6 4 -8 9 -5 5 3 11
-3 14 -14 3 -12 14 -20 26 -20 12 0 21 -6 21 -15 0 -8 -4 -15 -10 -15 -5 0
-10 -4 -10 -10 0 -6 10 -5 25 2 14 6 25 18 25 26 0 9 6 12 16 8 9 -3 18 -6 20
-6 2 0 4 -7 4 -16 0 -10 6 -14 14 -11 8 3 17 3 21 -1 4 -4 10 -7 13 -7 4 -1
31 -13 60 -28 41 -22 54 -34 59 -57 4 -23 11 -30 30 -30 14 0 21 4 18 10 -3 6
-3 15 0 20 8 12 54 -20 55 -37 0 -7 4 -13 10 -13 5 0 7 6 4 14 -4 11 1 11 29
3 22 -7 33 -16 30 -24 -4 -9 5 -13 26 -13 17 0 31 -4 31 -10 0 -5 8 -10 19
-10 10 0 24 -6 30 -14 7 -8 25 -13 47 -11 19 2 32 -1 28 -6 -3 -5 3 -12 13
-16 10 -3 25 -12 33 -18 23 -19 64 -25 98 -15 27 7 34 6 43 -12 l11 -20 22 21
c31 29 46 26 46 -9 0 -27 -8 -35 -32 -31 -4 0 -5 -6 -2 -14 4 -10 12 -12 30
-5 19 8 28 6 41 -10 10 -11 22 -20 27 -20 5 0 1 9 -9 20 -10 11 -15 28 -12 40
3 11 1 18 -4 14 -5 -3 -9 4 -9 15 0 11 -7 24 -15 29 -18 10 -10 42 11 42 16 0
34 31 34 59 0 17 4 19 32 10 22 -6 34 -6 36 1 7 20 22 9 22 -15 0 -29 16 -34
23 -7 4 13 5 11 6 -5 1 -27 21 -31 21 -5 0 11 11 24 25 30 14 6 25 17 25 24 0
9 3 8 11 -2 8 -12 12 -12 16 -2 3 8 12 1 23 -20 10 -18 24 -31 32 -29 35 10
43 5 46 -26 3 -34 18 -44 28 -18 4 8 13 15 21 15 13 0 13 -3 3 -15 -14 -17 -3
-20 19 -6 12 7 12 13 3 24 -7 7 -9 17 -5 20 7 8 43 -31 43 -47 0 -7 3 -7 8 -1
11 15 51 14 45 -2 -3 -7 0 -13 6 -13 6 0 11 -4 11 -10 0 -5 -7 -10 -15 -10 -9
0 -15 -9 -15 -21 0 -17 -5 -20 -21 -16 -22 6 -59 -11 -59 -27 0 -4 16 -5 35
-2 22 4 35 3 35 -4 0 -5 7 -10 15 -10 26 0 16 -19 -12 -23 -22 -3 -19 -4 11
-6 22 0 37 2 34 5 -3 3 5 16 19 30 14 14 22 28 18 32 -4 4 -10 1 -12 -5 -3 -7
-12 -13 -20 -13 -10 0 -13 6 -9 16 3 9 6 22 6 30 0 11 7 13 27 8 22 -6 25 -4
20 9 -3 9 -2 19 3 22 6 4 10 -5 10 -19 0 -31 20 -35 27 -6 5 19 13 23 30 18
16 -6 10 -28 -7 -28 -25 0 -34 -17 -35 -63 -1 -36 0 -37 36 -37 23 0 39 5 42
14 5 13 44 35 90 50 22 7 22 0 -3 -26 -30 -32 -25 -38 31 -38 37 0 48 3 43 13
-5 8 -2 7 10 -2 15 -12 22 -11 56 8 40 22 40 22 40 2 l0 -21 1744 0 c1386 0
1745 3 1749 13 3 9 9 9 28 -2 16 -10 24 -10 27 -2 2 6 12 11 23 11 10 0 19 5
19 10 0 6 6 10 13 10 7 0 23 13 37 30 14 16 34 30 46 30 12 0 24 7 28 15 3 8
14 15 24 15 10 0 24 10 30 23 6 12 11 16 11 10 1 -18 21 -16 21 2 0 9 9 15 24
15 14 0 31 6 38 13 17 17 38 11 38 -11 0 -14 2 -14 9 -3 5 8 7 19 5 25 -3 7 5
12 16 13 11 1 20 -3 20 -8 0 -6 9 -7 20 -4 14 4 22 1 28 -12 6 -16 20 -22 61
-25 14 -1 36 -16 66 -46 8 -6 20 -12 28 -12 16 0 47 -41 47 -63 0 -8 8 -21 19
-31 16 -15 46 -17 124 -7 5 1 6 5 3 10 -4 5 -1 11 6 13 17 6 -15 54 -42 63
-11 3 -20 14 -20 23 0 12 -3 13 -12 4 -16 -16 -28 -15 -28 3 0 18 -5 18 -31 5
-13 -7 -19 -7 -19 0 0 5 -7 10 -15 10 -8 0 -15 4 -15 8 0 4 -14 9 -31 10 -41
3 -49 9 -49 35 0 20 -1 20 -13 3 -12 -16 -16 -17 -35 -5 -12 8 -22 21 -22 31
0 9 -4 19 -9 22 -10 7 -9 25 2 44 6 8 14 9 26 2 10 -5 21 -7 24 -3 4 3 13 0
22 -7 13 -11 18 -9 34 9 10 11 23 21 28 21 6 0 16 7 23 15 10 12 10 15 -1 15
-10 1 -8 5 4 15 11 7 26 11 34 8 13 -5 15 -1 10 18 -7 29 6 55 22 44 9 -5 9
-10 1 -20 -13 -16 -4 -38 13 -32 12 4 14 8 16 52 1 32 17 32 25 0 6 -24 26
-36 26 -15 0 6 -4 10 -10 10 -20 0 -9 20 20 35 l30 16 0 219 0 220 -82 -45
c-245 -135 -567 -273 -848 -364 -547 -176 -1021 -266 -1655 -313 -244 -18
-845 -15 -1070 6 -524 48 -957 126 -1370 247 -94 28 -422 138 -460 154 -16 7
-68 28 -115 46 -260 100 -581 257 -820 401 -234 141 -299 186 -599 412 -14 11
-51 42 -82 68 -63 53 -84 63 -46 21z m1607 -1123 c0 -5 -5 -10 -11 -10 -5 0
-7 5 -4 10 3 6 8 10 11 10 2 0 4 -4 4 -10z m-10 -61 c0 -11 -12 -11 -35 -3
-12 5 -14 9 -4 14 14 9 39 2 39 -11z m-120 -19 c-17 -11 1 -19 33 -16 14 2 24
-1 21 -5 -3 -5 -12 -9 -20 -9 -8 0 -15 -8 -15 -17 -1 -16 -2 -17 -6 -1 -3 11
-10 15 -20 11 -10 -4 -14 -2 -9 5 3 6 2 13 -3 17 -6 3 -3 13 7 23 9 10 19 14
21 9 2 -5 -2 -13 -9 -17z m53 23 c-7 -2 -19 -2 -25 0 -7 3 -2 5 12 5 14 0 19
-2 13 -5z m252 -38 c13 -10 26 -105 14 -105 -3 0 -11 -11 -17 -25 -13 -29 -10
-31 13 -9 8 9 23 13 31 10 13 -5 8 -13 -21 -36 -21 -17 -41 -30 -45 -30 -25 0
-19 76 7 95 11 8 11 19 0 60 -7 28 -10 59 -8 70 l5 20 4 -20 c2 -11 10 -25 17
-30z m-415 20 c0 -8 -4 -15 -10 -15 -5 0 -7 7 -4 15 4 8 8 15 10 15 2 0 4 -7
4 -15z m261 8 c5 -26 4 -63 -1 -63 -20 1 -30 20 -24 43 6 25 22 37 25 20z m64
-39 c-16 -38 -13 -54 11 -54 12 0 12 4 2 20 -7 10 -10 22 -7 25 10 9 39 -6 32
-18 -3 -5 2 -16 12 -24 18 -13 18 -13 -1 -28 -33 -25 -61 -19 -74 18 -12 31
-24 94 -14 70 8 -19 22 -16 29 7 3 11 11 20 16 20 5 0 2 -16 -6 -36z m42 14
c-3 -8 -6 -5 -6 6 -1 11 2 17 5 13 3 -3 4 -12 1 -19z m5183 12 c0 -5 -5 -10
-11 -10 -5 0 -7 5 -4 10 3 6 8 10 11 10 2 0 4 -4 4 -10z m-5346 -19 c8 -12 -3
-41 -15 -41 -5 0 -9 11 -9 25 0 25 14 34 24 16z m-117 -53 c-3 -8 -6 -5 -6 6
-1 11 2 17 5 13 3 -3 4 -12 1 -19z m191 -21 c2 -10 -3 -17 -12 -17 -9 0 -14 8
-13 20 2 24 21 21 25 -3z m-104 -2 c-4 -8 -8 -15 -10 -15 -2 0 -4 7 -4 15 0 8
4 15 10 15 5 0 7 -7 4 -15z m61 -46 c-10 -15 -25 -10 -19 6 4 8 10 12 15 9 5
-3 7 -10 4 -15z m48 6 c-3 -9 -8 -14 -10 -11 -3 3 -2 9 2 15 9 16 15 13 8 -4z
m7 -75 c0 -5 -2 -10 -4 -10 -3 0 -8 5 -11 10 -3 6 -1 10 4 10 6 0 11 -4 11
-10z m5358 -32 c18 -18 15 -27 -8 -21 -11 3 -20 12 -20 19 0 17 12 18 28 2z
m-4413 -8 c3 -5 -3 -10 -15 -10 -12 0 -18 5 -15 10 3 6 10 10 15 10 5 0 12 -4
15 -10z m-45 -7 c0 -5 -5 -15 -10 -23 -8 -12 -10 -11 -10 8 0 12 5 22 10 22 6
0 10 -3 10 -7z m-47 -25 c8 -27 1 -38 -24 -38 -21 0 -24 12 -9 41 14 25 26 24
33 -3z m297 12 c0 -5 -5 -10 -11 -10 -5 0 -7 5 -4 10 3 6 8 10 11 10 2 0 4 -4
4 -10z m-95 -20 c3 -5 2 -10 -4 -10 -5 0 -13 5 -16 10 -3 6 -2 10 4 10 5 0 13
-4 16 -10z m4365 -5 c0 -19 -6 -19 -14 0 -3 8 -1 15 4 15 6 0 10 -7 10 -15z
m-843 -17 c-3 -8 -6 -5 -6 6 -1 11 2 17 5 13 3 -3 4 -12 1 -19z"/>
<path d="M238 1540 c-9 -10 -14 -21 -10 -24 3 -3 -6 -6 -19 -6 -16 0 -20 -3
-11 -9 7 -4 12 -12 10 -17 -4 -14 25 -54 40 -54 9 0 11 -7 7 -20 -4 -12 -2
-20 5 -20 7 0 14 9 17 20 5 19 32 27 46 14 9 -9 -16 -44 -31 -44 -7 0 -10 -4
-7 -10 3 -5 -3 -10 -14 -10 -17 0 -16 -5 14 -37 19 -21 35 -44 35 -50 0 -7 9
-13 19 -13 11 0 21 -5 23 -11 3 -8 10 -8 25 2 25 15 46 4 23 -12 -11 -8 -8
-10 13 -6 30 5 35 -4 13 -23 -8 -6 -12 -19 -9 -27 5 -12 2 -15 -10 -10 -11 4
-17 1 -17 -8 0 -8 -5 -15 -11 -15 -6 0 -9 -6 -6 -12 2 -7 17 -13 33 -13 19 0
28 -5 26 -14 -2 -9 9 -6 33 9 43 26 53 22 25 -10 -22 -26 -27 -55 -7 -44 46
26 62 66 31 78 -10 4 -13 13 -9 26 4 13 0 23 -14 32 -12 7 -21 21 -21 30 0 11
-8 18 -19 18 -14 0 -18 5 -14 18 2 10 -3 24 -11 31 -9 8 -16 24 -16 37 0 21
-4 24 -27 19 -16 -3 -22 -2 -15 1 14 7 16 50 3 58 -5 4 -11 0 -14 -6 -3 -10
-7 -10 -17 -1 -11 10 -11 15 -1 27 11 13 8 20 -13 41 -14 14 -26 30 -26 35 0
13 -13 13 -27 -1 -19 -19 -37 0 -19 20 9 10 13 21 9 24 -9 10 -16 8 -35 -13z
m25 -57 c-7 -2 -19 -2 -25 0 -7 3 -2 5 12 5 14 0 19 -2 13 -5z m53 -40 c-11
-11 -17 4 -9 23 7 18 8 18 11 1 2 -10 1 -21 -2 -24z m38 -78 c-7 -16 -44 -21
-44 -6 0 8 16 16 42 20 4 0 5 -6 2 -14z m-24 -41 c0 -9 -5 -14 -12 -12 -18 6
-21 28 -4 28 9 0 16 -7 16 -16z m57 -10 c-9 -9 -28 6 -21 18 4 6 10 6 17 -1 6
-6 8 -13 4 -17z m-22 -24 c3 -5 -1 -10 -9 -10 -9 0 -16 5 -16 10 0 6 4 10 9
10 6 0 13 -4 16 -10z m60 0 c3 -5 -1 -10 -9 -10 -9 0 -16 5 -16 10 0 6 4 10 9
10 6 0 13 -4 16 -10z m65 -100 c0 -5 -7 -10 -16 -10 -8 0 -12 5 -9 10 3 6 10
10 16 10 5 0 9 -4 9 -10z m-18 -27 c-6 -2 -10 -9 -6 -14 3 -5 -4 -9 -15 -9
-12 0 -21 4 -21 9 0 11 18 19 40 19 10 0 11 -1 2 -5z"/>
<path d="M2820 1490 c0 -5 5 -10 10 -10 6 0 10 5 10 10 0 6 -4 10 -10 10 -5 0
-10 -4 -10 -10z"/>
<path d="M3340 1405 c33 -19 49 -19 24 0 -10 8 -26 14 -34 14 -9 0 -4 -6 10
-14z"/>
<path d="M332 1229 c2 -7 10 -15 17 -17 8 -3 12 1 9 9 -2 7 -10 15 -17 17 -8
3 -12 -1 -9 -9z"/>
<path d="M540 1060 c-16 -22 -40 -26 -56 -10 -11 11 -44 3 -44 -10 0 -5 8 -16
17 -25 16 -16 17 -16 30 1 10 14 16 15 25 6 9 -9 8 -12 -5 -12 -11 0 -14 -5
-10 -16 3 -9 0 -20 -8 -25 -10 -6 -11 -9 -1 -9 7 0 20 10 30 21 9 12 22 26 28
33 12 13 34 52 34 60 0 14 -27 4 -40 -14z"/>
<path d="M565 1012 c-12 -10 -19 -26 -17 -39 5 -36 34 -25 51 19 15 40 0 49
-34 20z"/>
<path d="M595 935 c-11 -25 -23 -45 -26 -45 -4 0 -9 -9 -12 -20 -8 -30 21 -25
35 5 6 14 15 25 19 25 12 0 22 61 12 71 -5 5 -17 -10 -28 -36z"/>
<path d="M522 924 c-7 -8 -10 -19 -6 -26 5 -7 10 -3 16 12 10 28 7 33 -10 14z"/>
<path d="M639 903 c-1 -5 -1 -11 0 -15 0 -5 -6 -8 -15 -8 -8 0 -13 -4 -10 -8
3 -5 -2 -21 -10 -37 -18 -35 -14 -46 25 -74 l31 -22 10 28 c6 15 15 36 20 45
14 25 12 38 -5 38 -8 0 -15 -7 -15 -15 0 -9 -7 -18 -15 -21 -8 -4 -15 -12 -15
-20 0 -8 -6 -14 -14 -14 -25 0 -13 46 17 70 29 23 37 60 12 60 -8 0 -16 -3
-16 -7z"/>
<path d="M707 793 c-3 -5 -8 -23 -12 -42 -7 -33 -6 -33 19 -27 30 7 32 2 10
-49 -25 -61 -1 -62 30 -1 29 57 27 81 -5 71 -16 -6 -18 -2 -13 24 5 24 3 31
-9 31 -9 0 -18 -3 -20 -7z"/>
<path d="M656 694 c-3 -8 -1 -24 4 -34 10 -19 11 -19 28 -2 15 15 16 19 2 35
-18 21 -26 22 -34 1z"/>
<path d="M764 659 c-5 -8 -3 -9 5 -4 9 5 12 0 9 -21 -2 -15 2 -29 10 -31 7 -3
12 4 12 15 0 11 2 26 3 34 2 7 2 9 -1 5 -2 -4 -10 -3 -17 3 -10 8 -15 8 -21
-1z"/>
<path d="M826 597 c-11 -18 -18 -38 -17 -46 1 -8 -3 -18 -11 -22 -10 -7 -10
-11 0 -21 9 -9 12 -9 12 5 0 9 4 17 8 17 13 0 45 81 36 90 -5 5 -17 -5 -28
-23z"/>
<path d="M746 572 c-3 -6 -1 -14 5 -17 15 -10 25 3 12 16 -7 7 -13 7 -17 1z"/>
<path d="M870 544 c-6 -14 -10 -27 -10 -30 0 -2 -8 -13 -17 -23 -18 -21 -25
-59 -12 -66 10 -7 28 18 32 42 2 12 8 27 14 35 6 7 14 25 18 41 9 35 -12 37
-25 1z"/>
<path d="M912 498 c-7 -7 -12 -20 -12 -29 0 -10 -5 -19 -12 -21 -13 -5 -2 -28
12 -28 5 0 12 11 16 25 3 13 12 29 20 36 8 6 11 15 8 20 -7 12 -18 11 -32 -3z"/>
<path d="M960 449 c0 -9 -9 -24 -20 -34 -22 -20 -27 -49 -8 -43 7 3 21 19 32
37 14 24 16 35 7 44 -8 8 -11 7 -11 -4z"/>
<path d="M1170 411 c0 -5 7 -11 15 -15 8 -3 15 -1 15 3 0 5 -7 11 -15 15 -8 3
-15 1 -15 -3z"/>
<path d="M871 384 c0 -11 3 -14 6 -6 3 7 2 16 -1 19 -3 4 -6 -2 -5 -13z"/>
<path d="M1001 384 c0 -11 3 -14 6 -6 3 7 2 16 -1 19 -3 4 -6 -2 -5 -13z"/>
<path d="M972 337 c-12 -13 -20 -26 -17 -29 8 -8 -23 -31 -33 -24 -5 3 -7 18
-5 33 5 28 5 28 -11 6 -19 -25 -13 -49 15 -56 11 -3 19 -14 19 -27 0 -11 5
-18 10 -15 6 3 10 15 10 25 0 11 9 36 20 56 26 46 22 63 -8 31z"/>
<path d="M1030 333 c0 -10 -4 -23 -10 -29 -14 -14 4 -36 23 -28 21 8 22 47 2
64 -12 10 -15 9 -15 -7z"/>
<path d="M7345 340 c3 -5 11 -10 16 -10 6 0 7 5 4 10 -3 6 -11 10 -16 10 -6 0
-7 -4 -4 -10z"/>
<path d="M1237 313 c-4 -3 -7 -11 -7 -17 0 -6 5 -5 12 2 6 6 9 14 7 17 -3 3
-9 2 -12 -2z"/>
<path d="M1068 258 c-2 -17 -11 -24 -30 -26 -16 -2 -28 1 -28 7 0 6 -7 11 -15
11 -8 0 -12 -6 -9 -13 3 -8 0 -25 -5 -39 -12 -33 6 -78 32 -78 9 0 17 -7 17
-15 0 -24 18 -17 22 7 2 13 10 24 19 26 13 2 17 -6 17 -37 1 -29 -3 -41 -14
-41 -9 0 -14 -11 -14 -29 0 -29 2 -30 43 -29 23 1 47 6 54 11 17 13 28 96 14
110 -6 6 -12 7 -12 2 -1 -6 -3 -19 -4 -30 -8 -63 -39 -92 -64 -61 -9 10 -8 16
4 26 14 12 45 98 45 127 0 20 -18 15 -25 -7 -4 -13 -15 -20 -31 -20 -23 0 -31
10 -17 24 11 11 32 79 27 88 -10 15 -23 8 -26 -14z m-30 -74 c0 -22 -6 -38
-14 -41 -20 -8 -28 3 -18 24 7 17 10 25 13 46 0 4 5 7 10 7 5 0 9 -16 9 -36z"/>
<path d="M7270 271 c0 -6 5 -13 10 -16 6 -3 10 1 10 9 0 9 -4 16 -10 16 -5 0
-10 -4 -10 -9z"/>
<path d="M7330 235 c0 -8 5 -15 10 -15 6 0 10 7 10 15 0 8 -4 15 -10 15 -5 0
-10 -7 -10 -15z"/>
<path d="M2396 221 c-7 -11 22 -23 36 -15 5 3 9 0 7 -7 -3 -29 1 -38 18 -32
13 5 15 2 10 -17 -5 -21 -4 -22 9 -8 14 14 13 18 -10 41 -14 14 -26 31 -26 37
0 12 -37 14 -44 1z"/>
<path d="M2234 176 c-18 -13 -18 -15 -2 -21 18 -7 52 17 41 29 -9 9 -17 7 -39
-8z"/>
<path d="M2376 181 c-14 -5 -16 -10 -8 -15 7 -4 10 -12 7 -17 -14 -21 4 -7 19
16 17 26 14 29 -18 16z"/>
<path d="M6967 153 c-11 -11 -8 -23 6 -23 8 0 14 7 14 15 0 16 -9 19 -20 8z"/>
<path d="M7160 138 c0 -9 5 -20 10 -23 13 -8 13 5 0 25 -8 13 -10 13 -10 -2z"/>
<path d="M2356 129 c3 -10 1 -20 -5 -24 -14 -8 -14 -25 -1 -25 6 0 10 7 10 16
0 8 4 13 9 10 13 -9 39 3 45 20 5 13 3 13 -16 0 -19 -14 -23 -14 -35 2 -11 15
-12 15 -7 1z"/>
<path d="M7476 131 c-4 -7 -5 -15 -2 -18 9 -9 19 4 14 18 -4 11 -6 11 -12 0z"/>
<path d="M7210 120 c-12 -8 -9 -10 13 -10 17 0 27 -5 27 -15 0 -8 5 -15 10
-15 13 0 12 11 -4 33 -15 19 -25 21 -46 7z"/>
<path d="M2215 109 c-4 -6 -5 -13 -2 -16 7 -7 27 6 27 18 0 12 -17 12 -25 -2z"/>
<path d="M2249 95 c-8 -16 -21 -35 -29 -42 -12 -10 -13 -12 -1 -13 8 0 12 -3
8 -6 -3 -4 0 -13 8 -20 11 -11 19 -12 39 -2 35 15 33 31 -4 26 -20 -3 -30 0
-30 9 0 7 5 13 11 13 6 0 9 6 6 14 -3 8 -1 16 5 18 6 2 9 11 6 19 -4 9 -10 5
-19 -16z"/>
<path d="M2480 105 c-20 -24 -6 -28 15 -5 10 11 13 20 8 20 -6 0 -16 -7 -23
-15z"/>
<path d="M1770 100 c0 -5 5 -10 10 -10 6 0 10 5 10 10 0 6 -4 10 -10 10 -5 0
-10 -4 -10 -10z"/>
<path d="M2387 83 c9 -3 7 -11 -7 -26 -22 -23 -26 -37 -10 -37 6 0 10 5 10 11
0 6 6 9 14 6 8 -3 20 1 27 10 11 13 10 17 -6 29 -10 8 -24 14 -29 13 -6 0 -6
-3 1 -6z"/>
<path d="M2526 71 c-3 -5 10 -9 29 -9 19 0 35 4 35 9 0 12 -57 12 -64 0z"/>
<path d="M7291 44 c-15 -34 -9 -40 14 -14 12 14 15 24 8 31 -6 6 -14 1 -22
-17z"/>
<path d="M2000 50 c0 -5 7 -10 15 -10 8 0 15 5 15 10 0 6 -7 10 -15 10 -8 0
-15 -4 -15 -10z"/>
<path d="M2325 49 c-11 -17 1 -21 15 -4 8 9 8 15 2 15 -6 0 -14 -5 -17 -11z"/>
<path d="M6805 50 c3 -5 8 -10 11 -10 2 0 4 5 4 10 0 6 -5 10 -11 10 -5 0 -7
-4 -4 -10z"/>
<path d="M7055 50 c4 -6 11 -8 16 -5 14 9 11 15 -7 15 -8 0 -12 -5 -9 -10z"/>
<path d="M2557 37 c-9 -23 9 -39 39 -35 l29 3 -22 23 c-26 25 -39 28 -46 9z"/>
<path d="M2930 40 c-8 -5 -11 -12 -7 -16 4 -4 13 -2 19 4 15 15 7 24 -12 12z"/>
<path d="M1206 33 c-12 -12 -6 -33 9 -33 8 0 15 6 15 14 0 17 -14 28 -24 19z"/>
<path d="M2505 10 c-3 -5 3 -10 15 -10 12 0 18 5 15 10 -3 6 -10 10 -15 10 -5
0 -12 -4 -15 -10z"/>
<path d="M3105 10 c-3 -5 1 -10 9 -10 9 0 16 5 16 10 0 6 -4 10 -9 10 -6 0
-13 -4 -16 -10z"/>
<path d="M7310 10 c0 -5 7 -10 15 -10 8 0 15 5 15 10 0 6 -7 10 -15 10 -8 0
-15 -4 -15 -10z"/>
</g>
</svg>
